<svg width="4000" height="4000" viewBox="0 0 4000 4000" fill="none" xmlns="http://www.w3.org/2000/svg">
<g clip-path="url(#clip0_4_3)">
<g opacity="0.2">
<path d="M2058.83 3735C2691.2 3735 3203.83 3683.51 3203.83 3620C3203.83 3556.49 2691.2 3505 2058.83 3505C1426.46 3505 913.83 3556.49 913.83 3620C913.83 3683.51 1426.46 3735 2058.83 3735Z" fill="#000072"/>
</g>
<path d="M2219.01 3567.8C2192.03 3542.93 2145.39 3525.65 2091.35 3522.76C2116.08 3352.57 2116.42 3136.05 2116.42 3130.13C2115.02 3131.44 2072.49 3127.73 2072.49 3127.73C2072.49 3127.73 2030.39 3131.44 2028.99 3130.13C2028.99 3136.06 2029.33 3352.82 2054.11 3523.06C2002.28 3526.75 1957.79 3543.74 1931.67 3567.81C1923.96 3574.91 1923.96 3587.24 1931.67 3594.35C1961.29 3621.65 2014.55 3639.86 2075.34 3639.86C2136.13 3639.86 2189.39 3621.65 2219.01 3594.35C2226.73 3587.24 2226.73 3574.91 2219.01 3567.8Z" fill="#8B93A1"/>
<g opacity="0.3">
<path d="M2116.4 3130.13C2116.4 3132.62 2116.36 3173.5 2114.32 3232.78L2030.62 3219.08C2029.04 3167.3 2028.99 3132.43 2028.99 3130.13C2030.39 3131.44 2072.49 3127.73 2072.49 3127.73C2072.49 3127.73 2115 3131.44 2116.4 3130.13Z" fill="#000072"/>
</g>
<g opacity="0.3">
<path d="M2219.01 3594.32C2189.39 3621.64 2136.12 3639.86 2075.34 3639.86C2014.57 3639.86 1961.29 3621.64 1931.67 3594.32C1923.94 3587.22 1923.94 3574.92 1931.67 3567.82C1932.76 3566.83 1933.89 3565.83 1935.02 3564.89C1998.96 3590.16 2108.35 3617.07 2221.81 3571.13C2226.61 3578.32 2225.66 3588.22 2219.01 3594.32Z" fill="#000072"/>
</g>
<path d="M2075.34 3654.86C2012.63 3654.86 1955.12 3636.36 1921.5 3605.38C1914.76 3599.16 1910.88 3590.3 1910.88 3581.07C1910.88 3571.85 1914.76 3562.99 1921.51 3556.77C1947.96 3532.39 1989.48 3515.57 2037.08 3509.65C2014.26 3340.47 2013.99 3132.28 2013.99 3130.13C2013.99 3124.16 2017.53 3118.76 2023.01 3116.37C2025.88 3115.13 2028.98 3114.84 2031.91 3115.42C2032.03 3115.42 2032.15 3115.42 2032.27 3115.42C2037.88 3115.42 2056.08 3114.12 2071.18 3112.79C2072.04 3112.71 2072.92 3112.71 2073.8 3112.79C2089.42 3114.15 2108.29 3115.38 2113.49 3115.42C2116.42 3114.84 2119.52 3115.13 2122.39 3116.37C2127.87 3118.76 2131.41 3124.16 2131.41 3130.13C2131.41 3132.28 2131.14 3340.01 2108.41 3509.08C2158.23 3514.37 2201.63 3531.39 2229.17 3556.77C2235.93 3562.99 2239.8 3571.85 2239.8 3581.07C2239.8 3590.3 2235.93 3599.16 2229.17 3605.38C2195.56 3636.36 2138.05 3654.86 2075.34 3654.86ZM2044.09 3145.02C2044.63 3197.29 2048 3376.92 2068.95 3520.9C2069.55 3525.03 2068.41 3529.21 2065.79 3532.46C2063.18 3535.71 2059.33 3537.73 2055.17 3538.02C2008.31 3541.36 1965.94 3556.62 1941.84 3578.83C1941.01 3579.6 1940.88 3580.57 1940.88 3581.08C1940.88 3581.58 1941.01 3582.55 1941.83 3583.31C1969.64 3608.95 2020.8 3624.86 2075.34 3624.86C2129.89 3624.86 2181.04 3608.95 2208.85 3583.32C2209.68 3582.55 2209.8 3581.58 2209.8 3581.08C2209.8 3580.57 2209.68 3579.6 2208.85 3578.84C2208.85 3578.83 2208.85 3578.83 2208.85 3578.83C2183.77 3555.72 2139.55 3540.36 2090.55 3537.75C2086.34 3537.52 2082.42 3535.53 2079.75 3532.27C2077.08 3529.01 2075.9 3524.78 2076.5 3520.61C2097.41 3376.69 2100.78 3197.27 2101.31 3145.03C2094.3 3144.62 2085 3143.87 2072.5 3142.79C2060.21 3143.87 2051.04 3144.6 2044.09 3145.02ZM2039.2 3119.15C2039.2 3119.15 2039.2 3119.15 2039.21 3119.15C2039.2 3119.15 2039.2 3119.15 2039.2 3119.15ZM2106.21 3119.15C2106.2 3119.15 2106.2 3119.15 2106.2 3119.15C2106.2 3119.15 2106.2 3119.15 2106.21 3119.15ZM2106.27 3119.08C2106.27 3119.09 2106.26 3119.1 2106.25 3119.1C2106.26 3119.1 2106.27 3119.09 2106.27 3119.08ZM2106.29 3119.06C2106.29 3119.07 2106.28 3119.07 2106.28 3119.08C2106.28 3119.07 2106.29 3119.07 2106.29 3119.06ZM2039.11 3119.06C2039.12 3119.07 2039.12 3119.07 2039.13 3119.08C2039.12 3119.07 2039.12 3119.07 2039.11 3119.06ZM2107.5 3118.08C2107.1 3118.37 2106.69 3118.7 2106.29 3119.06C2106.68 3118.71 2107.08 3118.38 2107.5 3118.08ZM2037.92 3118.08C2038.33 3118.38 2038.73 3118.71 2039.11 3119.06C2038.71 3118.7 2038.31 3118.37 2037.92 3118.08Z" fill="#000072"/>
<path d="M1883.15 3411.49C1999.81 3434.71 2117.96 3434.51 2237.36 3414.41C2248.7 3412.51 2256.06 3401.09 2252.86 3390.04L2252.67 3389.39C2247.32 3371.94 2229.92 3361.11 2211.72 3362.47C2105.46 3370.45 1996.91 3369.46 1886.54 3361.37L1883.15 3411.49Z" fill="#8B93A1"/>
<path d="M2064.9 3444.12C2001.95 3444.12 1940.23 3438.15 1880.22 3426.21C1872.83 3424.74 1867.68 3418 1868.18 3410.48L1871.58 3360.36C1871.85 3356.38 1873.69 3352.67 1876.71 3350.05C1879.73 3347.43 1883.66 3346.14 1887.64 3346.42C2000.97 3354.72 2109.63 3355.08 2210.6 3347.52C2236.08 3345.56 2259.77 3361.37 2267.01 3385L2267.23 3385.72C2269.97 3395.18 2268.53 3405.25 2263.34 3413.52C2258.1 3421.86 2249.54 3427.57 2239.85 3429.2C2180.76 3439.15 2122.32 3444.12 2064.9 3444.12ZM1899.01 3399.26C2006.34 3418.95 2119.26 3419.07 2234.87 3399.62C2236.59 3399.33 2237.53 3398.2 2237.94 3397.55C2238.4 3396.82 2238.87 3395.64 2238.45 3394.21L2238.3 3393.71C2235.15 3383.44 2224.49 3376.56 2212.84 3377.43C2114.89 3384.78 2009.88 3384.77 1900.49 3377.39L1899.01 3399.26Z" fill="#000072"/>
<path d="M1576.78 2668.74C1576.78 2668.74 1516.48 2724.51 1421.52 2709.44C1421.52 2709.44 1335.6 2677.78 1285.85 2729.03C1285.85 2729.03 1281.33 2912.93 1626.52 2958.15C1626.52 2958.15 1733.54 2867.71 1727.52 2807.42C1721.49 2747.12 1576.78 2668.74 1576.78 2668.74Z" fill="white"/>
<g opacity="0.3">
<path d="M1727.52 2807.42C1726.41 2796.31 1720.56 2784.58 1711.81 2772.85C1710.34 2776.26 1708.68 2779.68 1706.87 2783.11C1669.8 2853.43 1587.53 2886.44 1510.85 2865.5C1376.89 2828.91 1319.85 2767.13 1295.57 2720.37C1292.21 2722.95 1288.96 2725.83 1285.85 2729.03C1285.85 2729.03 1281.33 2912.93 1626.52 2958.15C1626.52 2958.15 1733.54 2867.71 1727.52 2807.42Z" fill="#000072"/>
</g>
<path d="M1626.52 2973.15C1625.87 2973.15 1625.22 2973.11 1624.58 2973.03C1477.49 2953.76 1373.37 2907.69 1315.11 2836.1C1270.11 2780.81 1270.81 2730.76 1270.86 2728.66C1270.95 2724.89 1272.46 2721.29 1275.09 2718.58C1327.77 2664.29 1412.4 2690.44 1425.19 2694.82C1511.22 2707.89 1566.04 2658.23 1566.59 2657.72C1571.29 2653.36 1578.26 2652.49 1583.92 2655.55C1599.45 2663.95 1735.81 2739.63 1742.44 2805.92C1749.06 2872.16 1647.78 2959.83 1636.21 2969.61C1633.48 2971.91 1630.05 2973.15 1626.52 2973.15ZM1301.24 2735.11C1302.65 2748.23 1309.25 2782.26 1339.96 2819.08C1376.38 2862.75 1454.79 2919.31 1621.82 2942.39C1652.57 2915.24 1716.65 2849.5 1712.59 2808.91C1708.98 2772.81 1631.73 2717.07 1578.33 2686.75C1557.44 2702.32 1500.18 2737.09 1419.17 2724.25C1418.2 2724.1 1417.25 2723.85 1416.33 2723.51C1415.62 2723.25 1344.2 2697.86 1301.24 2735.11Z" fill="#000072"/>
<path d="M1929.5 3188.03L1750.13 3250.58C1764.45 3289.02 1751.63 3383.99 1732.04 3430.71C1712.44 3477.44 1776.5 3480.46 1776.5 3480.46C1913.68 3424.69 1981.51 3258.12 1981.51 3258.12L1929.5 3188.03Z" fill="white"/>
<g opacity="0.3">
<path d="M1929.5 3188.03L1876.64 3206.46C1902.95 3241.91 1905.19 3289.95 1881.76 3327.37C1852.75 3373.7 1805.8 3433.46 1740.72 3469.48C1755 3479.42 1776.5 3480.46 1776.5 3480.46C1913.68 3424.69 1981.51 3258.12 1981.51 3258.12L1929.5 3188.03Z" fill="#000072"/>
</g>
<path d="M1776.5 3495.46C1776.27 3495.46 1776.04 3495.45 1775.8 3495.44C1771.63 3495.24 1734.64 3492.83 1719.48 3468.83C1714.08 3460.28 1709.48 3445.72 1718.2 3424.91C1736.51 3381.27 1748.69 3289.69 1736.07 3255.82C1734.66 3252.04 1734.84 3247.86 1736.55 3244.2C1738.27 3240.56 1741.38 3237.75 1745.19 3236.42L1924.56 3173.86C1930.77 3171.71 1937.64 3173.82 1941.55 3179.09L1993.56 3249.18C1996.68 3253.39 1997.38 3258.93 1995.4 3263.78C1992.54 3270.82 1923.56 3436.86 1782.15 3494.35C1780.36 3495.08 1778.44 3495.46 1776.5 3495.46ZM1768.22 3260.16C1777.88 3309.8 1763.09 3395.45 1745.87 3436.51C1741.35 3447.28 1743.98 3451.44 1744.84 3452.81C1749.65 3460.42 1765.15 3464.2 1774.1 3465.22C1885.35 3418.07 1949.38 3292.25 1964.25 3260.03L1924.03 3205.82L1768.22 3260.16Z" fill="#000072"/>
<path d="M2535.47 2959.65C2535.47 2959.65 2496.31 2919.85 2423.64 2908.55C2381.4 2901.94 2327.85 2904.97 2264.14 2931.02C2090.81 3001.88 2009.41 2944.59 2009.41 2944.59L2005.75 2939.84C2005.75 2939.84 1807.41 2836.05 1763.69 3083.26L1950.73 3125.96L1950.85 3127.33L1955.14 3126.96C2244.56 3205.38 2491.74 3149.57 2491.74 3149.57C2562.6 3101.37 2535.47 2959.65 2535.47 2959.65Z" fill="#7BA2FF"/>
<g opacity="0.3">
<path d="M2212.89 3114.92C2193.5 3112.63 2177.17 3109.79 2163.42 3106.59C2131.1 3099.09 2130.16 3053.21 2162.26 3044.77C2240.19 3024.27 2320.16 2971.75 2426.94 2941.57C2470.97 2929.13 2506.33 2939.04 2534.1 2958.34C2526.85 2951.58 2488.74 2918.67 2423.63 2908.55C2381.4 2901.94 2327.85 2904.97 2264.14 2931.02C2090.81 3001.88 2009.41 2944.59 2009.41 2944.59L2005.75 2939.84C2005.75 2939.84 1807.41 2836.05 1763.69 3083.26L1950.73 3125.96L1950.85 3127.33L1955.14 3126.96C2244.56 3205.38 2491.74 3149.57 2491.74 3149.57C2513.77 3134.59 2526.31 3110.57 2533.16 3084.58C2468.02 3126.93 2325.43 3128.23 2212.89 3114.92Z" fill="#000072"/>
</g>
<path d="M2277.92 3184.09C2186.99 3184.09 2074.42 3174.53 1953.77 3142.13L1952.1 3142.27C1948.4 3142.58 1944.76 3141.52 1941.83 3139.31L1760.35 3097.89C1752.56 3096.11 1747.53 3088.53 1748.92 3080.66C1763.56 2997.87 1796.8 2943.2 1847.7 2918.18C1923.66 2880.85 2009.1 2924.67 2012.7 2926.55C2014.62 2927.55 2016.3 2928.96 2017.62 2930.67L2019.63 2933.28C2031.42 2940.01 2108.99 2978.23 2258.47 2917.13C2316.68 2893.33 2373.04 2885.44 2425.95 2893.73C2502.63 2905.66 2544.42 2947.35 2546.16 2949.12C2548.24 2951.24 2549.64 2953.91 2550.2 2956.82C2551.39 2963.01 2578.29 3108.84 2500.18 3161.98C2498.62 3163.04 2496.88 3163.79 2495.04 3164.21C2489.1 3165.55 2404.48 3184.09 2277.92 3184.09ZM1956.24 3112C1957.19 3112.08 1958.14 3112.23 1959.06 3112.49C2225.18 3184.58 2457.41 3141.29 2485.59 3135.54C2532.5 3100.6 2528.13 3006.87 2521.59 2967.29C2511.29 2958.44 2476.58 2931.96 2421.33 2923.36C2373.86 2915.95 2322.9 2923.2 2269.82 2944.91C2090.94 3018.02 2004.37 2959.38 2000.78 2956.85C1999.55 2955.99 1998.45 2954.94 1997.53 2953.75L1996.03 2951.8C1981.89 2945.24 1916.2 2917.84 1860.78 2945.18C1821.76 2964.44 1795.02 3007.03 1781.19 3071.87L1954.07 3111.33C1954.81 3111.5 1955.54 3111.73 1956.24 3112Z" fill="#000072"/>
<path d="M2423.91 2906.92L2423.64 2908.55C2381.4 2901.94 2327.86 2904.97 2264.14 2931.02C2090.81 3001.88 2009.41 2944.59 2009.41 2944.59L2005.75 2939.84L1962.65 2973.21L1959.67 2973.25C1960.17 2991.84 1958.17 3013.19 1949.09 3028.24L1942.57 3028.79L1950.85 3127.32L1956.64 3196.33C1956.64 3196.33 1854.12 3244.54 1748.62 3262.63C1748.62 3262.63 1593.19 3123.39 1631.05 2934.05C1634.57 2916.28 1640.77 2901.22 1649.13 2888.56C1599.08 2870.51 1520.12 2818.01 1531.56 2667.24C1531.56 2667.24 1745.59 2391.4 2074.21 2416.99C2402.83 2442.63 2618.36 2631.07 2423.91 2906.92Z" fill="#4D4F9E"/>
<g opacity="0.6">
<path d="M1531.56 2667.24C1530.74 2678.23 1530.38 2688.68 1530.43 2698.63C1581.94 2643.81 1707.5 2528.74 1883.57 2489.68C1873.76 2474.66 1864.47 2459.33 1855.75 2443.69C1653.97 2509.53 1531.56 2667.24 1531.56 2667.24Z" fill="white"/>
</g>
<g opacity="0.3">
<path d="M2074.21 2416.99C2047.26 2414.91 2021.12 2414.82 1995.8 2416.45C2061.01 2421.51 2128.07 2437.7 2194.05 2467.5C2257.27 2496.04 2300.93 2539.12 2324.35 2585.35C2123.59 2545.14 1638.58 2545.13 1638.58 2545.13C1638.58 2545.13 2009.68 2588.99 2238.4 2652.37C2311.8 2672.71 2315.72 2775.12 2244.22 2801.38C2233.63 2805.27 2222.19 2808.46 2209.88 2810.87C2164.06 2819.86 2116.57 2814.84 2072.89 2798.31C1975.54 2761.48 1865.49 2712.91 1839.06 2673.26C1839.06 2673.26 1831.78 2708.38 1842.38 2748.92C1791.23 2744.71 1750.16 2752.87 1718.88 2764.68C1638.14 2795.18 1550.17 2741.43 1543.52 2655.38C1543.46 2654.64 1543.41 2653.91 1543.36 2653.18C1535.58 2662.04 1531.56 2667.24 1531.56 2667.24C1520.12 2818.01 1599.07 2870.51 1649.13 2888.56C1644.01 2896.31 1639.81 2905.09 1636.43 2914.72C1658.22 2903.1 1688.48 2893.32 1730.53 2888.06C1893.33 2867.71 1924.98 2940.06 1924.98 2940.06C1924.98 2940.06 1878.63 2915.19 1836.8 2927.63C1836.8 2927.63 1887.67 2941.19 1903.5 3012.42C1906.68 3026.71 1910.6 3041.44 1912.07 3056.24C1924.98 3186.52 1750.81 3208.17 1716.45 3227.9C1734.82 3250.26 1748.62 3262.63 1748.62 3262.63C1854.12 3244.54 1956.64 3196.33 1956.64 3196.33L1950.85 3127.33L1942.57 3028.79L1949.09 3028.25C1958.17 3013.19 1960.16 2991.84 1959.67 2973.26L1962.65 2973.21L2005.75 2939.84L2009.41 2944.59C2009.41 2944.59 2090.81 3001.88 2264.14 2931.02C2327.86 2904.97 2381.4 2901.94 2423.64 2908.55L2423.91 2906.92C2618.36 2631.07 2402.83 2442.63 2074.21 2416.99Z" fill="#000072"/>
</g>
<path d="M1748.62 3277.63C1744.96 3277.63 1741.38 3276.28 1738.61 3273.8C1732 3267.88 1577.26 3126.6 1616.34 2931.11C1618.84 2918.5 1622.67 2906.74 1627.77 2896C1575.23 2871.71 1505.54 2811.84 1516.6 2666.1C1516.82 2663.17 1517.91 2660.37 1519.71 2658.05C1521.95 2655.16 1575.72 2586.51 1671.09 2520.2C1759.39 2458.81 1901.14 2388.5 2075.38 2402.04C2281.42 2418.12 2436.82 2496.61 2491.08 2612.02C2532.39 2699.89 2514.02 2803.9 2437.96 2912.99C2435.8 2920 2428.72 2924.5 2421.32 2923.36C2373.86 2915.96 2322.91 2923.2 2269.82 2944.91C2110.47 3010.03 2024.38 2970.62 2004.93 2959.44L1974.69 2982.86C1974.2 3004.91 1969.91 3022.75 1961.92 3036C1961.02 3037.5 1959.88 3038.8 1958.55 3039.88L1971.58 3195.08C1972.11 3201.32 1968.69 3207.24 1963.02 3209.91C1958.76 3211.91 1857.44 3259.18 1751.15 3277.41C1750.31 3277.55 1749.46 3277.63 1748.62 3277.63ZM1546.19 2673.02C1537.76 2804.12 1600.08 2854.93 1654.22 2874.45C1658.55 2876.01 1661.92 2879.47 1663.37 2883.83C1664.81 2888.2 1664.18 2892.99 1661.65 2896.83C1654.13 2908.2 1648.78 2921.71 1645.76 2936.97C1613.92 3096.24 1727.63 3220.65 1753.52 3246.52C1834.96 3231.43 1914.12 3198.68 1940.8 3187L1927.63 3030.05C1927.29 3026.08 1928.55 3022.15 1931.12 3019.1C1933.26 3016.58 1936.15 3014.85 1939.34 3014.14C1943.29 3004.16 1945.12 2990.35 1944.67 2973.66C1944.56 2969.65 1946.06 2965.77 1948.84 2962.88C1951.09 2960.52 1954.03 2958.99 1957.2 2958.46L1996.56 2927.98C1999.71 2925.54 2003.72 2924.46 2007.65 2924.96C2011.6 2925.47 2015.19 2927.53 2017.62 2930.68L2019.63 2933.28C2031.42 2940.01 2108.99 2978.23 2258.47 2917.14C2312.96 2894.86 2365.81 2886.53 2415.77 2892.34C2483.32 2793.86 2499.98 2701.47 2463.93 2624.79C2414.33 2519.26 2268.2 2447.17 2073.04 2431.95C1776.18 2408.84 1572.13 2641.77 1546.19 2673.02Z" fill="#000072"/>
<path d="M1636.81 2880.43C1648.94 2860.14 1667.92 2844.02 1688.59 2833.87C1709.38 2823.63 1731.52 2818.43 1753.31 2815.88C1775.16 2813.42 1796.83 2813.69 1818.15 2815.36C1839.48 2817.06 1860.51 2820.01 1881.23 2824.07C1922.71 2832.08 1963.02 2843.88 2002.48 2857.57C2022.22 2864.4 2041.76 2871.72 2060.99 2879.78C2080.22 2887.79 2099.33 2896.07 2117.94 2905.38C2078.62 2891.89 2038.72 2880.52 1998.67 2870.4C1978.63 2865.4 1958.48 2860.98 1938.26 2857.17C1918.06 2853.34 1897.82 2849.98 1877.54 2847.6C1837.1 2842.72 1796.17 2841.27 1757.44 2847.09C1718.95 2852.87 1682.56 2867.28 1661.45 2896.68C1656.69 2903.31 1647.46 2904.82 1640.84 2900.06C1634.57 2895.56 1632.88 2887.06 1636.74 2880.54L1636.81 2880.43Z" fill="#000072"/>
<path d="M1928.06 3032.59L1925.35 2963.86C1925.34 2963.74 1925.43 2963.64 1925.55 2963.64C1925.64 2963.63 1925.71 2963.68 1925.75 2963.75L1957.08 3024.99C1960.95 3032.54 1957.96 3041.79 1950.41 3045.66C1942.86 3049.52 1933.6 3046.53 1929.74 3038.98C1928.7 3036.95 1928.15 3034.73 1928.06 3032.59Z" fill="#000072"/>
<path d="M1944.8 2975.28L1945.36 2967.12L1945.48 2958.94C1945.29 2953.55 1944.95 2948.04 1943.91 2942.71C1942.97 2937.32 1941.45 2932.01 1939.11 2926.98C1936.75 2921.99 1933.69 2917.04 1928.94 2913.5C1934.81 2914.77 1940.26 2918.3 1945.03 2922.37C1949.84 2926.49 1954.03 2931.41 1957.65 2936.69C1961.39 2941.95 1964.41 2947.59 1967.29 2953.38L1971.15 2962.21L1974.53 2971.23C1977.51 2979.19 1973.48 2988.05 1965.52 2991.03C1957.57 2994.01 1948.71 2989.97 1945.73 2982.02C1944.94 2979.92 1944.64 2977.75 1944.77 2975.65L1944.8 2975.28Z" fill="#000072"/>
<path d="M2040.77 2921.42L2014.94 2951.69C2009.45 2958.13 1999.78 2958.89 1993.34 2953.4C1986.9 2947.91 1986.14 2938.24 1991.63 2931.8C1993.02 2930.17 1994.75 2928.88 1996.56 2927.98L2032.31 2910.5C2035.81 2908.79 2040.03 2910.24 2041.74 2913.74C2043.02 2916.34 2042.54 2919.35 2040.77 2921.42Z" fill="#000072"/>
<path d="M2309.35 2977.84C2300.19 2988.46 2289.3 2996.94 2277.9 3004.72L2269.23 3010.4C2266.27 3012.16 2263.25 3013.82 2260.24 3015.49C2254.26 3018.97 2248.03 3021.91 2241.77 3024.84C2216.65 3036.34 2189.91 3043.91 2162.85 3048.71L2142.47 3051.78C2135.68 3052.84 2128.8 3052.94 2121.98 3053.56C2108.33 3055 2094.62 3054.54 2080.98 3054.49C2074.15 3054.67 2067.35 3053.86 2060.56 3053.32C2053.77 3052.74 2046.98 3052.2 2040.23 3051.48C2026.75 3049.61 2013.38 3047.09 2000.12 3044.45C1999.09 3044.24 1998.43 3043.24 1998.63 3042.22C1998.81 3041.33 1999.58 3040.71 2000.45 3040.69L2000.58 3040.69C2014.11 3040.38 2027.49 3040.7 2040.83 3040.74C2054.19 3039.99 2067.5 3040.28 2080.73 3039.18C2107.22 3037.57 2133.43 3034.34 2159.27 3029.48C2184.99 3024.07 2210.34 3017.3 2234.99 3008.36C2259.59 2999.42 2283.81 2988.61 2306.35 2974.65L2306.53 2974.54C2307.56 2973.9 2308.92 2974.22 2309.55 2975.25C2310.07 2976.08 2309.96 2977.13 2309.35 2977.84Z" fill="#000072"/>
<g opacity="0.6">
<path d="M1983.77 3397.93C1983.77 3397.93 2104.17 3408.67 2212.14 3390.01Z" fill="white"/>
<path d="M2066.77 3408.45C2018.33 3408.45 1983.75 3405.46 1983.11 3405.4C1978.98 3405.03 1975.93 3401.39 1976.3 3397.27C1976.67 3393.13 1980.38 3390.09 1984.43 3390.46C1985.63 3390.57 2105.15 3400.89 2210.86 3382.62C2214.92 3381.95 2218.82 3384.65 2219.53 3388.74C2220.23 3392.82 2217.49 3396.7 2213.41 3397.41C2162.95 3406.12 2109.47 3408.45 2066.77 3408.45Z" fill="white"/>
</g>
<path d="M2515.87 2560.21L2516.72 2576.36C2517.62 2593.45 2504.46 2608.12 2487.36 2608.79C2461.67 2609.79 2417.52 2605.7 2346.29 2583.57C2212.89 2542.12 2231.73 2506.69 2231.73 2506.69L2515.87 2560.21Z" fill="#FF5722"/>
<path d="M2479.86 2626.43C2443.6 2626.43 2396.98 2617.65 2341.1 2600.28C2268.4 2577.69 2227.59 2553.42 2216.33 2526.07C2210.37 2511.58 2214.79 2501.29 2216.28 2498.48C2219.88 2491.71 2227.46 2488.09 2234.97 2489.5L2519.11 2543.01C2527.04 2544.5 2532.92 2551.22 2533.34 2559.28L2534.2 2575.44C2534.89 2588.5 2530.41 2601 2521.61 2610.65C2512.87 2620.22 2500.95 2625.77 2488.04 2626.27C2485.38 2626.38 2482.65 2626.43 2479.86 2626.43ZM2268.05 2531.34C2282.6 2540.93 2307.82 2553.29 2351.49 2566.86C2421.69 2588.67 2463.74 2592.18 2486.68 2591.3C2490.16 2591.16 2493.38 2589.65 2495.76 2587.06C2498.2 2584.38 2499.44 2580.91 2499.25 2577.28L2499.12 2574.86L2268.05 2531.34Z" fill="#000072"/>
<g opacity="0.2">
<path d="M2515.87 2560.21L2516.72 2576.36C2517.62 2593.45 2504.46 2608.12 2487.36 2608.79C2461.67 2609.79 2417.52 2605.7 2346.29 2583.57C2212.89 2542.12 2231.73 2506.69 2231.73 2506.69L2515.87 2560.21Z" fill="#000072"/>
</g>
<path d="M1773.49 1893.19C1773.49 1893.19 1640.09 1847.97 1583.56 2096.69C1527.04 2345.4 1739.57 2270.79 1787.06 2105.73C1834.54 1940.67 1773.49 1893.19 1773.49 1893.19Z" fill="#FF5722"/>
<path d="M1634.92 2274.91C1628.14 2274.91 1621.49 2274.11 1615.06 2272.46C1589.67 2265.92 1534.1 2235.34 1566.5 2092.81C1590.14 1988.77 1630.05 1920.4 1685.11 1889.58C1734.42 1861.98 1777.31 1876.01 1779.11 1876.62C1780.96 1877.25 1782.69 1878.18 1784.23 1879.38C1787.11 1881.61 1854.06 1936.13 1803.87 2110.57C1777.64 2201.78 1699.92 2274.91 1634.92 2274.91ZM1749.03 1907.42C1736.84 1907.42 1719.86 1910.02 1701.32 1920.62C1656.36 1946.33 1621.54 2008.56 1600.63 2100.57C1582.87 2178.68 1591.53 2230.26 1623.78 2238.56C1663.85 2248.89 1743 2195.6 1770.24 2100.89C1807.95 1969.81 1773.63 1919.41 1764.53 1908.94C1761.27 1908.25 1755.91 1907.42 1749.03 1907.42Z" fill="#000072"/>
<path d="M2515.36 2036.63C2513.87 2029.22 2512.28 2022.03 2510.57 2015.11C2484.68 1906.95 2439.71 1860.3 2408.45 1840.31C2392.17 1829.9 2379.65 1826.7 2375.44 1825.86C2375.36 1825.83 2375.29 1825.8 2375.21 1825.76C2375.29 1825.8 2375.36 1825.83 2375.44 1825.86C2374.45 1825.67 2373.86 1825.59 2373.86 1825.59L2373.77 1825.13C1975.42 1650.81 1722.99 1913.54 1722.99 1913.54C1628.03 2078.6 1754.65 2493.86 1754.65 2493.86L2517.39 2560.2C2565.6 2518.01 2533.94 2320.53 2533.94 2320.53L2532.86 2319.27C2541.18 2312.08 2549.5 2304.16 2557.69 2295.43C2655.68 2191.43 2515.36 2036.63 2515.36 2036.63Z" fill="#FF5722"/>
<g opacity="0.2">
<path d="M2537.22 2333.57C2525.78 2337.73 2514.07 2341.21 2502.36 2343.93C2397.58 2368.03 2386.27 2334.89 2385.51 2253.49C2384.78 2172.09 2309.4 2135.91 2309.4 2135.91C2333.5 2122.35 2372.71 2120.85 2372.71 2120.85C2347.07 2081.65 2273.22 2092.18 2273.22 2092.18C2231.35 1962.49 2250.61 1861.83 2465.1 1889.59C2445.65 1858.62 2425.12 1840.44 2408.48 1829.81C2392.2 1819.36 2379.67 1816.2 2375.47 1815.34C2374.47 1815.16 2373.89 1815.07 2373.89 1815.07L2373.79 1814.62C1975.44 1640.29 1723.02 1903.02 1723.02 1903.02C1628.05 2068.08 1754.67 2483.35 1754.67 2483.35L2517.42 2549.69C2555.36 2516.49 2543.83 2387.2 2537.22 2333.57ZM1777.3 1994.97C1810.46 2037.18 1861.71 2064.31 1991.34 2041.7C2120.98 2019.09 2041.09 2154.75 1905.42 2120.08C1746.46 2079.46 1777.3 1994.97 1777.3 1994.97ZM2299.79 2329.8C2297.88 2334.57 2255.57 2341.85 2252.31 2344.78C2243.27 2400.46 2218.48 2465.86 2095.35 2474.32C1921.18 2486.28 1729.41 2477.14 1723.84 2196.55C1722.97 2152.83 1768.14 2123.34 1807.72 2141.91C1827.9 2151.38 1853.46 2160.89 1885.83 2169.83C1975.34 2194.55 2051.84 2171.54 2101.41 2146.88C2131.58 2131.87 2167.84 2145.5 2181.48 2176.32C2183.73 2181.41 2186.25 2186.63 2189.03 2191.9C2237.24 2175 2297.53 2195.29 2309.4 2246.7C2318.44 2278.36 2313.36 2298.14 2299.79 2329.8Z" fill="#000072"/>
</g>
<path d="M1666.24 2166.27C1660.27 2166.27 1654.56 2163.73 1650.57 2159.29C1556.4 2054.51 1483.86 1924.96 1470.05 1836.92C1469.17 1831.36 1470.52 1825.79 1473.83 1821.24C1477.15 1816.7 1482.03 1813.71 1487.59 1812.84C1488.69 1812.67 1489.77 1812.59 1490.84 1812.59C1501.29 1812.59 1510.04 1820.07 1511.67 1830.38C1524.12 1909.78 1594.12 2033.45 1681.9 2131.12C1685.67 2135.31 1687.57 2140.71 1687.27 2146.33C1686.98 2151.95 1684.51 2157.11 1680.32 2160.87C1676.45 2164.36 1671.44 2166.27 1666.24 2166.27Z" fill="#5A5E8C"/>
<path d="M1490.84 1820.09C1497.4 1820.09 1503.21 1824.85 1504.26 1831.55C1516.92 1912.24 1587.68 2037.49 1676.33 2136.14C1681.34 2141.71 1680.88 2150.29 1675.31 2155.3C1672.71 2157.62 1669.47 2158.77 1666.24 2158.77C1662.52 2158.77 1658.83 2157.25 1656.15 2154.27C1562.87 2050.48 1491.06 1922.48 1477.46 1835.75C1476.29 1828.35 1481.35 1821.41 1488.76 1820.25C1489.45 1820.14 1490.15 1820.09 1490.84 1820.09ZM1490.85 1805.09C1490.84 1805.09 1490.84 1805.09 1490.84 1805.09C1489.38 1805.09 1487.91 1805.2 1486.46 1805.43C1478.89 1806.61 1472.27 1810.66 1467.77 1816.83C1463.28 1823 1461.46 1830.54 1462.64 1838.08C1476.66 1927.43 1549.94 2058.53 1644.99 2164.3C1650.41 2170.32 1658.15 2173.77 1666.24 2173.77C1673.3 2173.77 1680.08 2171.17 1685.33 2166.46C1691.01 2161.35 1694.36 2154.35 1694.77 2146.73C1695.17 2139.11 1692.58 2131.78 1687.49 2126.11C1600.58 2029.41 1531.34 1907.33 1519.08 1829.22C1516.88 1815.23 1505 1805.09 1490.85 1805.09Z" fill="#000072"/>
<path d="M1400.42 1756.4C1508.43 1756.4 1596 1655.17 1596 1530.29C1596 1405.42 1508.43 1304.19 1400.42 1304.19C1292.4 1304.19 1204.83 1405.42 1204.83 1530.29C1204.83 1655.17 1292.4 1756.4 1400.42 1756.4Z" fill="#4A81FD"/>
<g opacity="0.6">
<path d="M1238.75 1544.61C1238.75 1419.74 1326.31 1318.51 1434.33 1318.51C1451.56 1318.51 1468.25 1321.1 1484.17 1325.94C1458.78 1312.01 1430.39 1304.19 1400.42 1304.19C1292.4 1304.19 1204.83 1405.42 1204.83 1530.29C1204.83 1635.25 1266.71 1723.49 1350.58 1748.97C1284.47 1712.69 1238.75 1634.84 1238.75 1544.61Z" fill="white"/>
</g>
<path d="M1400.42 1768.9C1285.68 1768.9 1192.33 1661.86 1192.33 1530.29C1192.33 1398.73 1285.68 1291.69 1400.42 1291.69C1515.15 1291.69 1608.5 1398.73 1608.5 1530.29C1608.5 1661.86 1515.15 1768.9 1400.42 1768.9ZM1400.42 1316.69C1299.46 1316.69 1217.33 1412.51 1217.33 1530.29C1217.33 1648.08 1299.46 1743.9 1400.42 1743.9C1501.37 1743.9 1583.5 1648.08 1583.5 1530.29C1583.5 1412.51 1501.37 1316.69 1400.42 1316.69Z" fill="#000072"/>
<path d="M1467.12 1721.35C1575.13 1721.35 1662.7 1620.12 1662.7 1495.25C1662.7 1370.37 1575.13 1269.14 1467.12 1269.14C1359.1 1269.14 1271.53 1370.37 1271.53 1495.25C1271.53 1620.12 1359.1 1721.35 1467.12 1721.35Z" fill="#4A81FD"/>
<path d="M1467.11 1733.85C1352.38 1733.85 1259.03 1626.81 1259.03 1495.25C1259.03 1363.68 1352.38 1256.64 1467.11 1256.64C1581.86 1256.64 1675.2 1363.68 1675.2 1495.25C1675.2 1626.81 1581.86 1733.85 1467.11 1733.85ZM1467.11 1281.64C1366.16 1281.64 1284.03 1377.46 1284.03 1495.25C1284.03 1613.03 1366.16 1708.85 1467.11 1708.85C1568.07 1708.85 1650.2 1613.03 1650.2 1495.25C1650.2 1377.46 1568.07 1281.64 1467.11 1281.64Z" fill="#000072"/>
<path d="M2515.87 2577.71C2515.37 2577.71 2514.86 2577.69 2514.35 2577.64L1751.63 2511.32C1744.51 2510.7 1738.48 2505.82 1736.4 2498.99C1731.14 2481.73 1608.7 2074.5 1706.31 1904.81C1711.14 1896.44 1721.85 1893.56 1730.21 1898.38C1738.59 1903.19 1741.47 1913.89 1736.65 1922.27C1655.05 2064.11 1747.53 2410.47 1766.59 2477.49L2508.77 2542.02C2531.99 2508.96 2526.96 2396.98 2515.17 2323.3C2513.64 2313.76 2520.14 2304.78 2529.68 2303.25C2539.24 2301.76 2548.2 2308.22 2549.73 2317.76C2555.27 2352.33 2580.24 2527.13 2527.39 2573.37C2524.19 2576.18 2520.09 2577.71 2515.87 2577.71Z" fill="#000072"/>
<path d="M2382.46 2604.56L1930.79 2557.01L1937.96 2488.94L2389.62 2536.48C2408.42 2538.46 2422.06 2555.3 2420.08 2574.1C2418.1 2592.9 2401.26 2606.54 2382.46 2604.56Z" fill="#C0BECC"/>
<g opacity="0.3">
<path d="M2382.46 2604.56L1930.79 2557.01L1937.96 2488.94L2389.62 2536.48C2408.42 2538.46 2422.06 2555.3 2420.08 2574.1C2418.1 2592.9 2401.26 2606.54 2382.46 2604.56Z" fill="#000072"/>
</g>
<path d="M2386.14 2619.75C2384.39 2619.75 2382.65 2619.66 2380.89 2619.47H2380.89L1929.22 2571.93C1920.98 2571.06 1915.01 2563.68 1915.87 2555.45L1923.04 2487.37C1923.45 2483.41 1925.43 2479.78 1928.52 2477.28C1931.61 2474.78 1935.54 2473.61 1939.53 2474.02L2391.2 2521.56C2404.27 2522.94 2416.03 2529.33 2424.3 2539.55C2432.58 2549.77 2436.37 2562.6 2435 2575.67C2433.62 2588.75 2427.24 2600.51 2417.02 2608.78C2408.17 2615.94 2397.36 2619.75 2386.14 2619.75ZM2384.03 2589.64C2389.12 2590.17 2394.14 2588.69 2398.14 2585.46C2402.13 2582.23 2404.62 2577.64 2405.16 2572.53C2406.27 2561.99 2398.6 2552.51 2388.05 2551.4L1951.3 2505.42L1947.28 2543.66L2384.03 2589.64Z" fill="#000072"/>
<path d="M2299.75 2335.79C2300.19 2337.61 2297.68 2340.07 2292.32 2342.66C2286.95 2345.09 2278.6 2347.51 2267.64 2347.6C2256.78 2347.69 2243.05 2345.13 2229.84 2336.69C2223.32 2332.42 2217 2326.68 2211.98 2318.81C2209.56 2314.79 2207.37 2310.31 2206.19 2304.82C2205.1 2299.39 2204.9 2292.61 2208.04 2285.66C2208.76 2283.97 2209.91 2282.35 2210.96 2280.79C2212.09 2279.28 2213.47 2277.97 2214.82 2276.68C2216.21 2275.51 2217.71 2274.58 2219.2 2273.63C2220.68 2272.77 2222.15 2272.23 2223.65 2271.6C2229.47 2269.61 2234.92 2269.2 2239.44 2269.59C2244.12 2269.86 2248.23 2270.74 2252.06 2271.8C2253.7 2272.25 2255.32 2272.7 2256.92 2273.15C2258.37 2273.58 2259.82 2274 2261.24 2274.43C2272.63 2277.65 2282.82 2279.5 2291.04 2279.81C2299.18 2280.01 2305.28 2278.78 2309.38 2277.06C2313.61 2275.42 2316.01 2273.62 2317.84 2274.18C2319.62 2274.6 2320.46 2279.07 2316.69 2284.87C2313.12 2290.79 2304.4 2296.56 2293.37 2299.12C2282.36 2301.64 2269.37 2301.44 2255.84 2299.18C2252.6 2298.58 2249.29 2297.96 2245.92 2297.33C2243.26 2296.82 2240.62 2296.49 2238.36 2296.5C2235.95 2296.35 2234.23 2296.92 2233.28 2297.21C2233.17 2297.33 2232.89 2297.35 2232.83 2297.42C2232.76 2297.39 2232.98 2297.75 2232.53 2297.21C2232.51 2297.1 2232.07 2296.74 2232.07 2296.74C2232.34 2296.93 2232.11 2296.75 2232.59 2297.02C2233.36 2297.4 2232.86 2297.05 2232.99 2297.26C2233.06 2297.41 2232.87 2297.37 2232.93 2297.65C2232.88 2298.04 2232.95 2298.7 2233.02 2299.44C2233.28 2301.01 2234.09 2303.03 2235.12 2305.01C2237.36 2309.02 2240.74 2312.91 2244.58 2316.07C2252.34 2322.41 2261.56 2326.18 2269.8 2328.27C2286.44 2332.43 2298.9 2331.77 2299.75 2335.79Z" fill="#000072"/>
<path d="M2306.53 2218.22C2306.6 2221.95 2294.44 2223 2282.36 2234.03C2276.36 2239.56 2270.37 2247.58 2265.38 2258.1C2262.88 2263.34 2260.57 2269.12 2258.57 2275.35C2257.57 2278.46 2256.63 2281.67 2255.78 2284.96C2254.97 2288.15 2254.13 2291.85 2253.66 2294.66C2252.45 2301.92 2245.59 2306.82 2238.32 2305.61C2237.43 2305.46 2236.58 2305.23 2235.76 2304.92L2235.65 2304.87C2233.53 2304.05 2232.55 2303.55 2231.16 2302.87C2229.85 2302.23 2228.67 2301.52 2227.42 2300.83C2225.03 2299.39 2222.72 2297.82 2220.5 2296.1C2216.13 2292.61 2211.93 2288.71 2208.42 2284.1C2201.18 2275.09 2196.71 2264.4 2194.61 2254.09C2192.59 2243.72 2192.84 2233.84 2193.85 2224.78C2194.22 2222.42 2194.77 2220.02 2195.25 2217.72C2195.73 2215.4 2196.21 2213.13 2197.22 2210.84C2198.12 2208.56 2198.98 2206.34 2199.95 2204.19C2201.23 2202.07 2202.54 2200.02 2203.85 2198.05C2209.6 2190.22 2217.76 2185.16 2225.17 2182.98C2240.24 2179.01 2251.17 2182.28 2258.06 2184.84C2264.98 2187.64 2268.13 2190.73 2267.53 2192.5C2266.93 2194.32 2262.93 2194.8 2256.35 2195.41C2249.94 2196.03 2240.33 2196.78 2232.17 2201.12C2228.22 2203.4 2225.11 2206.46 2222.88 2210.62C2220.44 2214.63 2219.72 2220.74 2219.08 2227.14C2218.94 2234.18 2219.27 2241.38 2220.91 2248.26C2222.64 2255.08 2225.56 2261.54 2230.02 2267.08C2232.14 2269.94 2234.77 2272.35 2237.41 2274.6C2238.76 2275.69 2240.16 2276.69 2241.56 2277.62C2242.26 2278.01 2242.98 2278.51 2243.64 2278.85C2244.22 2279.19 2245.22 2279.67 2245.15 2279.67L2227.14 2289.88C2228.15 2285.15 2229.23 2281.51 2230.48 2277.56C2231.72 2273.72 2233.1 2270.01 2234.59 2266.41C2237.56 2259.23 2241.04 2252.55 2244.94 2246.48C2252.65 2234.34 2262.59 2224.84 2272.54 2219.56C2282.57 2214.23 2291.85 2213.31 2297.73 2214.04C2300.71 2214.36 2302.92 2215.03 2304.39 2215.84C2305.84 2216.59 2306.55 2217.39 2306.53 2218.22Z" fill="#000072"/>
<path d="M2546.77 1336.97V1517.86C2546.77 1517.86 2539.9 1622.68 2471.34 1703.4C2273.41 1717.24 2092.21 1855.16 1994.89 1943.84C1947.55 1986.98 1920.05 2018.5 1920.05 2018.5C1920.05 2018.5 1866.83 1995.89 1846.25 1966.86L1846.16 1964.78C1822.38 1966.04 1796.78 1966.32 1770.14 1965.05C1602.42 1957.23 1395.22 1888.54 1352.44 1607.67C1352.44 1607.67 1297.76 1560 1250.33 1455.45C1225.82 1401.41 1203.25 1332.18 1191.18 1246.49L1193.89 1243.64C1215.6 1264.17 1243.54 1281.53 1279.76 1292.52C1278.63 1289.94 1230.43 1183.85 1260.23 1048.32L1262.13 1047.74C1277.77 1099.61 1313.82 1154.46 1388.34 1199.05C1388.34 1199.05 1392.86 1097.71 1453.37 995.145C1486.88 1057.37 1553.76 1128.59 1686.8 1152.33C1686.8 1152.33 1687.53 1134.83 1688.7 1111.36C1727.18 1135.33 1779.73 1151.97 1849.6 1144.78C1849.6 1144.78 1847.02 1134.24 1844.44 1116.06C1851.22 1119.55 1858.46 1122.62 1866.19 1125.2C1866.19 1125.2 1859.32 1017.98 1878.13 929.89C1898.53 986.326 1939.27 1061.12 2018.45 1107.11C2018.45 1107.11 2018.45 1066.87 2033.6 1014.36C2058.11 1117.78 2135.58 1283.93 2379.45 1341.49C2379.45 1341.49 2471.16 1444.33 2544.47 1335.39L2546.77 1336.97Z" fill="#FFB78A"/>
<path d="M1920.04 2036C1917.74 2036 1915.42 2035.55 1913.21 2034.61C1907.66 2032.25 1860.99 2011.85 1836.45 1982.75C1813.82 1983.65 1791.28 1983.57 1769.31 1982.53C1597.08 1974.5 1382.74 1904.26 1336.08 1616.32C1321.19 1601.82 1275.2 1552.63 1234.39 1462.68C1205.11 1398.12 1184.74 1326.2 1173.85 1248.93C1173.1 1243.63 1174.82 1238.28 1178.51 1234.41L1181.22 1231.56C1187.87 1224.59 1198.92 1224.3 1205.92 1230.92C1219.01 1243.31 1233.93 1253.73 1250.51 1262.1C1237.49 1217.31 1222.69 1137.56 1243.14 1044.57C1244.49 1038.42 1249.04 1033.47 1255.05 1031.61L1256.95 1031.02C1261.41 1029.64 1266.23 1030.1 1270.35 1032.29C1274.46 1034.48 1277.53 1038.22 1278.88 1042.68C1293.81 1092.18 1325.77 1134.52 1374.02 1168.84C1379.74 1130.18 1395.49 1058.82 1438.3 986.255C1441.5 980.816 1447.31 977.52 1453.71 977.649C1460.02 977.773 1465.78 981.289 1468.77 986.848C1496.81 1038.9 1554.31 1104.77 1670.22 1131.13C1670.5 1125.14 1670.84 1118.13 1671.22 1110.49C1671.53 1104.29 1675.1 1098.73 1680.59 1095.85C1686.09 1092.99 1692.69 1093.23 1697.95 1096.51C1735.48 1119.88 1779.47 1130.7 1828.68 1128.75C1828.17 1125.65 1827.64 1122.23 1827.11 1118.52C1826.2 1112.05 1828.97 1105.6 1834.3 1101.81C1838.23 1099.01 1843.06 1098.01 1847.66 1098.87C1846.82 1060.68 1847.55 989.292 1861.02 926.236C1862.65 918.597 1869.15 912.965 1876.94 912.432C1884.61 911.866 1891.93 916.595 1894.59 923.943C1911.44 970.567 1943.59 1032.36 2003.21 1076.22C2005.27 1058.98 2009.22 1035.73 2016.79 1009.51C2018.95 1002.01 2025.82 996.865 2033.6 996.865C2033.74 996.865 2033.88 996.868 2034.03 996.87C2041.98 997.063 2048.8 1002.59 2050.63 1010.33C2072.71 1103.52 2145.32 1268.25 2383.47 1324.46C2386.97 1325.29 2390.12 1327.17 2392.51 1329.85C2392.85 1330.23 2429.75 1370.66 2470.39 1367.8C2492.11 1366.27 2512.14 1352.07 2529.95 1325.62C2532.56 1321.74 2536.61 1319.07 2541.2 1318.19C2545.78 1317.33 2550.54 1318.32 2554.38 1320.97L2556.68 1322.55C2561.44 1325.81 2564.27 1331.21 2564.27 1336.97V1517.85C2564.27 1518.24 2564.26 1518.62 2564.23 1519C2563.94 1523.52 2556.16 1630.56 2484.68 1714.72C2481.63 1718.32 2477.26 1720.53 2472.56 1720.85C2277.5 1734.49 2096.94 1874.52 2006.68 1956.77C1960.75 1998.63 1933.51 2029.7 1933.24 2030.01C1929.84 2033.9 1925 2036 1920.04 2036ZM1862.97 1959.92C1875.45 1974.95 1899.66 1989.1 1915.77 1997.18C1927.56 1984.47 1950.69 1960.45 1983.11 1930.91C2075.58 1846.64 2259.92 1703.87 2462.58 1686.53C2520.2 1614.66 2528.67 1524.65 2529.27 1517.2V1378.99C2512.08 1393.38 2493.14 1401.33 2472.64 1402.73C2423.88 1406.08 2383.03 1369.92 2370.39 1357.32C2167.15 1307.66 2077.25 1183.35 2037.51 1084.39C2035.99 1098.46 2035.95 1106.94 2035.95 1107.11C2035.95 1113.37 2032.61 1119.16 2027.18 1122.28C2021.75 1125.41 2015.07 1125.39 2009.66 1122.25C1950.26 1087.75 1911.53 1038.16 1886.49 991.587C1879.71 1059.64 1883.6 1123.27 1883.66 1124.09C1884.03 1129.9 1881.48 1135.51 1876.87 1139.06C1873.98 1141.29 1870.51 1142.53 1866.97 1142.69C1867.49 1146.96 1866.41 1151.31 1863.89 1154.87C1860.98 1159 1856.42 1161.68 1851.39 1162.19C1797.27 1167.77 1748.11 1160.31 1704.85 1140.03C1704.49 1148.13 1704.29 1153.04 1704.29 1153.06C1704.08 1158.11 1701.7 1162.82 1697.76 1165.98C1693.81 1169.15 1688.71 1170.44 1683.73 1169.57C1560.84 1147.64 1492.16 1086.23 1454.19 1030.22C1410.15 1118.09 1405.87 1198.96 1405.82 1199.85C1405.53 1206 1402.04 1211.55 1396.61 1214.46C1391.2 1217.37 1384.64 1217.23 1379.36 1214.07C1330.44 1184.8 1293.56 1149.05 1269.16 1107.36C1261.63 1204.75 1291.66 1276.2 1295.7 1285.28C1298.48 1291.54 1297.38 1298.91 1292.85 1304.04C1288.32 1309.17 1281.24 1311.26 1274.68 1309.27C1252.88 1302.65 1232.83 1293.52 1214.73 1281.97C1225.91 1341.58 1243.19 1397.36 1266.27 1448.23C1311.3 1547.5 1363.44 1594.05 1363.97 1594.5C1367.06 1597.22 1369.12 1600.97 1369.74 1605.04C1410.79 1874.59 1610.58 1940.09 1770.96 1947.57C1795.22 1948.72 1820.2 1948.64 1845.23 1947.31C1849.87 1947.05 1854.48 1948.69 1857.93 1951.83C1860.35 1954.02 1862.08 1956.83 1862.97 1959.92Z" fill="#000072"/>
<path d="M1779.14 2029.14C1775.86 2027.28 1782.33 2009.68 1793.61 1989.75L1799.59 2000.02L1799.24 2000.05C1789.75 2000.07 1781.61 2004.1 1775.75 2007.81C1769.86 2011.52 1766.18 2014.5 1764.54 2013.5C1762.93 2012.58 1763.91 2007.2 1769.2 2000.62C1771.84 1997.38 1775.64 1993.86 1780.74 1991.07C1785.81 1988.28 1792.27 1986.35 1799.09 1986.3L1799.59 1986.28C1803.28 1986.1 1806.42 1988.96 1806.59 1992.65C1806.65 1993.96 1806.33 1995.2 1805.73 1996.26L1805.56 1996.55C1794.22 2016.44 1782.42 2031 1779.14 2029.14Z" fill="#000072"/>
<path d="M1888.7 2098.82C1884.93 2098.75 1882.22 2080.2 1882.62 2057.31L1892.77 2063.48L1892.48 2063.66C1884.15 2068.22 1878.92 2075.64 1875.54 2081.7C1872.14 2087.77 1870.32 2092.14 1868.4 2092.05C1866.55 2092 1864.85 2086.81 1866.35 2078.51C1867.13 2074.4 1868.79 2069.5 1871.94 2064.61C1875.06 2059.73 1879.81 2054.95 1885.79 2051.65L1886.21 2051.4C1889.38 2049.48 1893.49 2050.5 1895.41 2053.66C1896.08 2054.78 1896.39 2056.02 1896.37 2057.24L1896.36 2057.57C1895.89 2080.46 1892.48 2098.89 1888.7 2098.82Z" fill="#000072"/>
<path d="M2099.97 2018.12C2097.09 2020.56 2082.81 2008.41 2068 1990.95L2067.8 1990.72C2065.41 1987.9 2065.76 1983.67 2068.57 1981.28C2069.57 1980.43 2070.77 1979.93 2071.98 1979.76L2072.47 1979.69C2079.18 1978.48 2085.89 1979.19 2091.38 1981C2096.91 1982.8 2101.29 1985.55 2104.5 1988.26C2110.9 1993.75 2112.85 1998.85 2111.44 2000.05C2110.02 2001.34 2105.84 1999.09 2099.38 1996.53C2092.93 1993.96 2084.19 1991.5 2074.85 1993.23L2074.51 1993.27L2078.49 1982.07C2093.25 1999.58 2102.85 2015.68 2099.97 2018.12Z" fill="#000072"/>
<path d="M2610.08 1128.95C2593.67 1232.87 2570.2 1297.18 2544.47 1335.39C2471.16 1444.33 2379.45 1341.49 2379.45 1341.49C2135.58 1283.93 2058.11 1117.78 2033.6 1014.36C2018.45 1066.87 2018.45 1107.11 2018.45 1107.11C1939.27 1061.12 1898.53 986.326 1878.13 929.89C1859.32 1017.98 1866.19 1125.2 1866.19 1125.2C1858.46 1122.62 1851.22 1119.55 1844.44 1116.06C1847.02 1134.24 1849.6 1144.78 1849.6 1144.78C1779.73 1151.97 1727.18 1135.33 1688.7 1111.36C1687.53 1134.83 1686.8 1152.33 1686.8 1152.33C1553.76 1128.59 1486.88 1057.37 1453.37 995.145C1392.86 1097.71 1388.34 1199.05 1388.34 1199.05C1313.82 1154.46 1277.77 1099.6 1262.13 1047.74L1260.23 1048.32C1230.43 1183.85 1278.63 1289.94 1279.76 1292.52C1243.54 1281.53 1215.6 1264.17 1193.89 1243.64L1191.18 1246.49C1203.25 1332.18 1225.82 1401.41 1250.33 1455.45C1140.89 1380.48 1126.06 1250.28 1126.06 1250.28L1077.76 1335.26C1066.95 1283.16 1061.26 1229.3 1061.26 1174.18C1061.26 718.392 1449.66 348.89 1928.74 348.89C2108.53 348.89 2275.54 400.938 2414.09 490.069L2414.5 489.437C2414.5 489.437 2422.41 392.98 2448.42 431.418C2474.42 469.856 2474.42 538.818 2474.42 538.818C2474.42 538.818 2648.52 509.424 2623.65 543.34C2598.78 577.256 2518.87 614.201 2518.87 614.201C2518.87 614.201 2673.39 728.747 2610.08 1128.95Z" fill="#5C6A79"/>
<g opacity="0.6">
<path d="M2448.42 431.417C2422.42 392.979 2414.5 489.436 2414.5 489.436L2414.09 490.069C2275.54 400.938 2108.53 348.888 1928.74 348.888C1720.87 348.888 1530.11 418.482 1380.7 534.47C1372.98 539.188 1365.23 544.402 1357.55 550.1C1335.27 566.624 1316.68 584.856 1303.06 602.583C1153.32 750.893 1061.26 952.3 1061.26 1174.17C1061.26 1229.3 1066.95 1283.16 1077.76 1335.25L1085.86 1321.05C1081.56 1287.73 1079.35 1253.81 1079.35 1219.4C1079.35 1014.48 1157.89 827.036 1287.84 682.739C1311.37 701.465 1370.98 685.363 1427.03 643.794C1487.33 599.08 1520.65 541.858 1501.46 515.986C1500.59 514.808 1499.59 513.745 1498.53 512.736C1629.36 437.452 1782.77 394.109 1946.82 394.109C2126.62 394.109 2293.62 446.159 2432.18 535.29L2432.59 534.657C2432.59 534.657 2440.5 438.2 2466.5 476.638C2466.64 476.864 2466.78 477.045 2466.91 477.271C2463.07 461.037 2457.24 444.486 2448.42 431.417Z" fill="white"/>
</g>
<g opacity="0.3">
<path d="M1441.11 882.499L1453.37 995.145C1392.86 1097.71 1388.34 1199.05 1388.34 1199.05C1313.82 1154.46 1277.78 1099.61 1262.13 1047.74L1260.23 1048.33C1230.43 1183.85 1278.63 1289.94 1279.77 1292.52C1243.54 1281.53 1215.6 1264.17 1193.89 1243.64L1191.18 1246.48C1203.25 1332.18 1225.82 1401.41 1250.33 1455.45C1140.89 1380.48 1126.06 1250.28 1126.06 1250.28L1077.76 1335.25C1071.02 1302.7 1066.23 1269.46 1063.65 1235.63C1063.65 1235.59 1063.65 1235.59 1063.65 1235.59C1073.42 1142.48 1120.04 1067.91 1120.04 1067.91C1122.31 1171.92 1210.49 1205.83 1210.49 1205.83C1185.61 1070.17 1248.92 979.726 1248.92 979.726C1251.91 1005.95 1258.56 1028.16 1267.1 1046.88C1297.72 1113.67 1352.93 1135.74 1352.93 1135.74C1330.32 1031.73 1441.11 882.499 1441.11 882.499Z" fill="#000072"/>
</g>
<g opacity="0.3">
<path d="M2518.87 614.201C2518.87 614.201 2598.78 577.255 2623.65 543.339C2638.35 523.261 2583.45 525.386 2536.15 530.451L2467.64 590.821C2467.64 590.821 2585.21 740.82 2523.39 962.404C2523.39 962.404 2479.5 967.804 2422.59 963.811C2458.27 995.546 2519.64 1003.84 2519.64 1003.84C2519.64 1003.84 2435.98 1053.58 2334.23 1015.15C2232.49 976.708 2204.6 914.152 2204.6 914.152C2244.85 939.763 2300.66 946.883 2331.1 948.845C2255.49 928.018 2183.45 882.366 2170.31 785.272C2170.31 785.272 1981.51 830.493 1990.55 991.028C1990.55 991.028 1895.59 934.502 1924.98 830.493C1924.98 830.493 1791.58 905.108 1825.5 1058.86C1825.5 1058.86 1778.01 1033.99 1750.88 977.462C1750.88 977.462 1730.53 1047.56 1775.75 1108.6C1775.75 1108.6 1642.35 1070.17 1597.13 1006.86C1597.13 1006.86 1592.61 1056.6 1624.26 1101.82C1624.26 1101.82 1545.44 1102.77 1489.28 1047.33C1528.62 1092.91 1590.3 1135.1 1686.8 1152.33C1686.8 1152.33 1687.53 1134.83 1688.7 1111.36C1727.18 1135.33 1779.73 1151.97 1849.6 1144.78C1849.6 1144.78 1847.02 1134.24 1844.44 1116.06C1851.23 1119.55 1858.46 1122.62 1866.19 1125.2C1866.19 1125.2 1859.32 1017.98 1878.13 929.89C1898.53 986.326 1939.27 1061.12 2018.45 1107.11C2018.45 1107.11 2018.45 1066.86 2033.6 1014.36C2058.11 1117.78 2135.58 1283.93 2379.45 1341.49C2379.45 1341.49 2471.16 1444.33 2544.47 1335.39C2570.2 1297.18 2593.67 1232.87 2610.08 1128.95C2673.39 728.747 2518.87 614.201 2518.87 614.201Z" fill="#000072"/>
</g>
<path d="M1453.37 995.144C1462.55 1012.15 1474.17 1029.83 1489 1047.06C1475.26 1033.4 1462.87 1016.4 1453.37 995.144Z" fill="#000072"/>
<path d="M1250.33 1470.45C1247.37 1470.45 1244.41 1469.58 1241.85 1467.83C1165.32 1415.4 1132.9 1338.37 1119.68 1291.86L1090.81 1342.67C1087.72 1348.09 1081.58 1351.05 1075.43 1350.07C1069.27 1349.1 1064.35 1344.41 1063.08 1338.3C1051.91 1284.51 1046.25 1229.29 1046.25 1174.18C1046.25 710.84 1442.13 333.889 1928.73 333.889C2097.56 333.889 2260.73 379.133 2402.22 464.963C2407.44 430.908 2417.25 411.799 2431.48 408.068C2438.96 406.105 2450.09 407.118 2460.84 423.01C2480.87 452.622 2486.86 496.943 2488.66 521.303C2621.88 500.48 2633.97 520.065 2638.04 526.676C2640.3 530.333 2644.59 540.143 2635.74 552.208C2616.54 578.399 2571.26 604.415 2544.73 618.165C2584.7 662.017 2676.88 802.686 2624.9 1131.3C2609.63 1227.96 2586.75 1299.45 2556.91 1343.77C2533.18 1379.03 2504.76 1398.03 2472.46 1400.23C2423.97 1403.55 2383.44 1366.92 2371.65 1355.05C2162.61 1304.22 2073.89 1174.13 2036.25 1074.26C2033.53 1094.27 2033.45 1106.91 2033.45 1107.13C2033.44 1112.49 2030.57 1117.44 2025.92 1120.11C2021.26 1122.78 2015.54 1122.77 2010.92 1120.08C1948.89 1084.06 1909.55 1031.41 1884.87 983.113C1876.88 1054.41 1881.11 1123.39 1881.16 1124.24C1881.48 1129.22 1879.3 1134.03 1875.35 1137.08C1872.06 1139.61 1867.94 1140.65 1863.9 1140.02C1864.07 1140.79 1864.16 1141.2 1864.17 1141.22C1865.19 1145.43 1864.35 1149.89 1861.85 1153.43C1859.35 1156.97 1855.44 1159.26 1851.13 1159.7C1796.04 1165.36 1746.19 1157.44 1702.53 1136.14C1702.05 1146.47 1701.79 1152.93 1701.79 1152.95C1701.61 1157.28 1699.57 1161.32 1696.19 1164.03C1692.81 1166.74 1688.43 1167.87 1684.16 1167.1C1559.53 1144.86 1491.06 1081.77 1453.89 1025.28C1407.78 1115.13 1403.36 1198.82 1403.32 1199.73C1403.08 1205 1400.08 1209.76 1395.43 1212.26C1390.78 1214.76 1385.16 1214.63 1380.64 1211.92C1329.37 1181.25 1291.44 1143.43 1267.37 1099.09C1257.43 1201.22 1289.24 1276.89 1293.41 1286.3C1295.79 1291.66 1294.86 1297.99 1290.97 1302.39C1287.09 1306.78 1281.04 1308.57 1275.41 1306.87C1251.85 1299.73 1230.36 1289.61 1211.2 1276.67C1222.38 1338.64 1240.09 1396.57 1263.99 1449.26C1266.77 1455.39 1265.12 1462.62 1259.96 1466.94C1257.19 1469.27 1253.77 1470.45 1250.33 1470.45ZM1126.06 1235.28C1127.06 1235.28 1128.06 1235.38 1129.07 1235.59C1135.43 1236.89 1140.23 1242.13 1140.96 1248.59C1141.08 1249.59 1151.69 1334.07 1213.19 1402.88C1196.33 1354.57 1183.98 1302.91 1176.33 1248.58C1175.69 1244.04 1177.16 1239.46 1180.32 1236.14L1183.03 1233.29C1188.74 1227.3 1198.2 1227.06 1204.2 1232.74C1218.82 1246.56 1235.67 1257.97 1254.53 1266.84C1241.27 1223.57 1224.39 1141.5 1245.58 1045.11C1246.74 1039.83 1250.64 1035.59 1255.79 1034L1257.69 1033.41C1261.51 1032.23 1265.65 1032.62 1269.17 1034.49C1272.7 1036.37 1275.34 1039.58 1276.49 1043.41C1291.93 1094.58 1325.33 1138.17 1375.92 1173.22C1381.07 1135.9 1396.29 1062.38 1440.45 987.526C1443.2 982.865 1448.25 980.072 1453.66 980.151C1459.07 980.256 1464.01 983.271 1466.58 988.037C1495.09 1040.99 1553.8 1108.11 1672.59 1134.22C1672.89 1127.64 1673.27 1119.56 1673.72 1110.61C1673.99 1105.31 1677.04 1100.54 1681.75 1098.07C1686.46 1095.61 1692.12 1095.82 1696.63 1098.63C1735.31 1122.73 1780.68 1133.6 1831.61 1131.12C1830.97 1127.35 1830.28 1123.02 1829.59 1118.17C1828.81 1112.62 1831.18 1107.1 1835.75 1103.85C1840 1100.82 1845.49 1100.24 1850.25 1102.24C1849.29 1065.15 1849.64 991.529 1863.47 926.761C1864.86 920.213 1870.44 915.384 1877.12 914.928C1883.69 914.462 1889.97 918.497 1892.24 924.796C1909.54 972.657 1942.86 1036.4 2005.21 1080.76C2007.1 1063.32 2011.03 1038.51 2019.19 1010.21C2021.09 1003.66 2027.14 999.305 2033.97 999.373C2040.78 999.537 2046.63 1004.28 2048.2 1010.91C2070.42 1104.66 2143.44 1270.37 2382.9 1326.9C2385.89 1327.61 2388.6 1329.22 2390.65 1331.52C2391 1331.91 2428.68 1373.23 2470.55 1370.3C2493.08 1368.72 2513.76 1354.16 2532.02 1327.02C2559.4 1286.36 2580.68 1218.93 2595.27 1126.62V1126.62C2656.45 739.863 2511.41 627.348 2509.94 626.257C2505.69 623.103 2503.41 617.942 2503.95 612.676C2504.49 607.41 2507.77 602.818 2512.57 600.593C2531.64 591.77 2581.23 565.881 2604.61 542.444C2580.63 540.132 2524.59 545.566 2476.91 553.613C2472.59 554.353 2468.12 553.127 2464.74 550.28C2461.37 547.433 2459.42 543.244 2459.42 538.832C2459.42 538.207 2459.09 478.078 2438.19 443.27C2434.56 453.866 2430.92 472.877 2429.45 490.67C2429.25 493.111 2428.45 495.47 2427.13 497.533L2426.73 498.165C2424.58 501.52 2421.18 503.88 2417.29 504.728C2413.4 505.58 2409.33 504.838 2405.98 502.687C2264.83 411.886 2099.8 363.893 1928.74 363.893C1458.68 363.893 1076.26 727.387 1076.26 1174.18C1076.26 1213.55 1079.25 1252.97 1085.19 1291.84L1113.02 1242.88C1115.72 1238.12 1120.74 1235.28 1126.06 1235.28Z" fill="#000072"/>
<path d="M2033.6 1031.84C2023.94 1031.84 2016.1 1024.03 2016.1 1014.36V1014.32C2016.1 1004.65 2023.94 996.819 2033.6 996.819C2043.27 996.819 2051.1 1004.65 2051.1 1014.32C2051.1 1023.98 2043.27 1031.84 2033.6 1031.84Z" fill="#000072"/>
<path d="M2518.89 614.185C2518.89 614.185 2663.59 731.76 2549.03 1138.75L2637.22 1196.79C2759.31 721.963 2518.89 614.185 2518.89 614.185Z" fill="white"/>
<path d="M2637.22 1211.79C2634.33 1211.79 2631.45 1210.95 2628.97 1209.32L2540.79 1151.28C2535.33 1147.69 2532.82 1140.98 2534.59 1134.69C2644.43 744.492 2510.7 626.896 2509.34 625.756C2503.6 620.947 2502.24 612.607 2506.22 606.261C2510.19 599.915 2518.17 597.426 2525.02 600.497C2527.67 601.684 2590.43 630.612 2637.15 720.509C2698.42 838.414 2703.33 999.913 2651.74 1200.52C2650.54 1205.21 2647.14 1209.03 2642.62 1210.78C2640.87 1211.46 2639.04 1211.79 2637.22 1211.79ZM2566.41 1132.23L2627.77 1172.61C2682.2 945.986 2649.49 810.695 2611.67 736.562C2602.21 718.024 2591.98 702.314 2581.81 689.106C2610.58 766.904 2628.74 904.7 2566.41 1132.23Z" fill="#000072"/>
<path d="M2626.36 1935.02C2615.46 1996.7 2515.07 2013.66 2515.07 2013.66L2509.06 2015.11C2466.51 1837.35 2372.36 1825.59 2372.36 1825.59L2372.26 1825.14C2277.84 1841.69 2140.96 1893.15 2007.1 2041.47C2007.1 2041.47 1869.22 2118.44 1770.05 1967.27L1770.15 1965.05C1796.78 1966.31 1822.38 1966.04 1846.16 1964.78L1846.25 1966.86C1866.83 1995.89 1920.05 2018.5 1920.05 2018.5C1920.05 2018.5 1947.55 1986.98 1994.89 1943.84C2092.21 1855.16 2273.41 1717.23 2471.35 1703.4C2515.98 1700.28 2561.43 1703.44 2607.01 1714.93C2607.01 1714.93 2629.98 1749.98 2588.88 1787.46C2588.88 1787.46 2627.54 1829.79 2580.37 1856.43C2580.37 1856.43 2637.22 1873.34 2626.36 1935.02Z" fill="#FF5722"/>
<g opacity="0.2">
<path d="M2515.55 1922C2562.72 1895.36 2524.06 1853.04 2524.06 1853.04C2565.16 1815.55 2542.19 1780.5 2542.19 1780.5C2496.61 1769.01 2451.16 1765.85 2406.53 1768.97C2208.59 1782.81 2027.39 1920.73 1930.08 2009.41C1926.33 2012.82 1922.75 2016.14 1919.26 2019.39C1898.93 2011.2 1838.65 1985.04 1815.32 1954.24C1815.32 1954.24 1810.91 2020.08 1882.08 2055.56C1908.14 2068.55 1920.99 2067.51 1926.84 2061.01C1973.15 2060.38 2007.1 2041.47 2007.1 2041.47C2140.96 1893.15 2277.84 1841.68 2372.26 1825.13L2372.36 1825.59C2372.36 1825.59 2466.51 1837.34 2509.06 2015.11L2515.07 2013.66C2515.07 2013.66 2537.13 2009.93 2561.69 1999.62C2571.77 1938.75 2515.55 1922 2515.55 1922Z" fill="#000072"/>
</g>
<path d="M1924.07 2075.72C1873.38 2075.72 1810 2055.49 1757.51 1975.49C1755.8 1972.88 1754.94 1969.79 1755.06 1966.67L1755.15 1964.45C1755.31 1960.46 1757.06 1956.69 1760.01 1953.99C1762.95 1951.29 1766.86 1949.85 1770.86 1950.07C1795.21 1951.22 1820.28 1951.13 1845.37 1949.8C1849.35 1949.6 1853.29 1950.98 1856.25 1953.68C1858.45 1955.67 1859.98 1958.26 1860.7 1961.09C1873.83 1977.19 1899.94 1992.2 1916.33 2000.26C1927.64 1988.01 1951.21 1963.35 1984.79 1932.75C2078.18 1847.66 2265.43 1702.76 2470.3 1688.44C2518.57 1685.06 2565.81 1689.08 2610.68 1700.38C2614.32 1701.3 2617.49 1703.56 2619.55 1706.71C2629.01 1721.14 2637.37 1755.31 2608.42 1788.88C2614.4 1798.69 2620.83 1813.7 2618.19 1830.22C2617.14 1836.82 2614.33 1845.1 2607.58 1853.33C2628.46 1867.8 2648.65 1894.9 2641.14 1937.62C2641.13 1937.62 2641.13 1937.63 2641.13 1937.63C2628.86 2007.09 2527.48 2026.69 2518.12 2028.36L2512.56 2029.69C2508.69 2030.63 2504.61 2029.98 2501.22 2027.9C2497.82 2025.82 2495.4 2022.47 2494.47 2018.6C2457.23 1863.04 2379.46 1842.37 2371.06 1840.59C2281.32 1857.05 2148.5 1907.18 2018.24 2051.52C2017.14 2052.74 2015.85 2053.78 2014.42 2054.57C2013.66 2055 1975.38 2075.72 1924.07 2075.72ZM1798.47 1980.84C1881.22 2082.91 1981.66 2037.67 1997.74 2029.46C2135.02 1878.24 2275.67 1826.84 2369.68 1810.36C2372.81 1809.81 2375.87 1810.28 2378.55 1811.51C2398.36 1816.04 2478.93 1843.65 2520.04 1997.37C2548.81 1990.87 2604.84 1970.63 2611.59 1932.41C2619.79 1885.82 2580.51 1872.18 2576.01 1870.78C2570.29 1869 2566.14 1863.98 2565.5 1858.03C2564.87 1852.08 2567.78 1846.31 2572.99 1843.37C2582.23 1838.15 2587.47 1832.17 2588.55 1825.58C2590.38 1814.51 2581.37 1801.58 2577.75 1797.53C2572.26 1791.4 2572.69 1781.93 2578.76 1776.38C2601.97 1755.21 2599.61 1736.49 2596.58 1727.83C2556.82 1718.57 2515.08 1715.39 2472.39 1718.36C2276.57 1732.05 2095.5 1872.45 2005 1954.93C1958.94 1996.9 1931.63 2028.05 1931.36 2028.36C1927.09 2033.25 1920.16 2034.84 1914.19 2032.31C1911.97 2031.36 1862.07 2009.93 1837.59 1980.2C1824.5 1980.74 1811.43 1980.95 1798.47 1980.84Z" fill="#000072"/>
<path d="M2369.99 2399.53C2342.69 2399.53 2320.4 2393.9 2306.65 2385.76C2299.52 2381.54 2297.16 2372.34 2301.38 2365.21C2305.61 2358.08 2314.81 2355.74 2321.93 2359.94C2347.09 2374.84 2450.91 2385.33 2545.26 2285.15C2632.55 2192.5 2504.04 2048.15 2502.73 2046.7C2500.92 2044.7 2499.68 2042.24 2499.15 2039.6C2497.6 2031.89 2496.07 2025.07 2494.5 2018.73C2492.5 2010.68 2497.4 2002.55 2505.44 2000.55C2513.48 1998.55 2521.62 2003.45 2523.61 2011.49C2525.02 2017.14 2526.37 2023.12 2527.73 2029.66C2579.34 2088.31 2650.63 2217.06 2567.09 2305.72C2500.23 2376.72 2424.95 2399.52 2369.99 2399.53Z" fill="#000072"/>
<path d="M2274.81 2395.03C2268.96 2395.03 2262.9 2394.35 2256.67 2392.99C2253.96 2392.42 2251.21 2391.71 2248.47 2390.86C2243.36 2389.28 2240.41 2383.95 2241.75 2378.78C2242.12 2377.36 2277.49 2236.56 2178.83 2186.27C2178.63 2186.17 2178.39 2186.03 2178.16 2185.9C2177.25 2185.42 2176.5 2185.06 2175.75 2184.71C2172.27 2183.04 2170.06 2179.53 2170.07 2175.67C2170.08 2171.81 2172.3 2168.3 2175.79 2166.65C2175.84 2166.63 2175.92 2166.59 2176.01 2166.55C2182.94 2162.86 2252.92 2127.99 2314.06 2187.9C2352.98 2226.04 2363.84 2306.21 2336.83 2356.11C2323.12 2381.43 2301.08 2395.03 2274.81 2395.03ZM2263.21 2373.91C2294.07 2379.76 2310.68 2362.39 2319.24 2346.59C2342.08 2304.4 2332.76 2234.22 2300.06 2202.19C2264.28 2167.12 2225.1 2170.9 2202.99 2177.29C2282.72 2230.81 2269.45 2340.41 2263.21 2373.91Z" fill="#000072"/>
<path d="M2233.4 2154.82C2238.4 2147.16 2243.84 2139.76 2251.01 2134.08C2254.29 2130.98 2258.27 2128.73 2261.96 2126.32C2265.91 2124.28 2269.8 2122.26 2273.93 2120.9C2282.09 2117.98 2290.46 2116.45 2298.72 2116.04C2307.01 2115.68 2315.08 2116.22 2323.12 2117.99C2324.17 2118.22 2324.83 2119.26 2324.6 2120.31C2324.4 2121.22 2323.6 2121.83 2322.71 2121.84H2322.56C2315.03 2121.89 2307.31 2123.11 2300.14 2125.1C2292.92 2127.11 2286.14 2130.1 2280.17 2133.93C2277.12 2135.74 2274.48 2138.07 2271.84 2140.26C2269.49 2142.8 2266.94 2145.01 2265.1 2147.88C2260.87 2153.07 2258.33 2159.4 2256 2165.51L2255.73 2166.21C2253.25 2172.71 2245.96 2175.97 2239.46 2173.49C2232.95 2171.01 2229.69 2163.73 2232.17 2157.22C2232.49 2156.38 2232.93 2155.54 2233.4 2154.82Z" fill="#000072"/>
<path d="M2251.66 2172.38C2249.62 2172.38 2247.6 2171.56 2246.12 2169.94C2244.2 2167.83 2242.42 2165.77 2240.64 2163.67C2127.39 2029.41 2229.62 1871.99 2230.67 1870.41C2232.96 1866.96 2237.61 1866.03 2241.06 1868.31C2244.51 1870.6 2245.45 1875.25 2243.17 1878.71C2242.19 1880.19 2146.19 2028.43 2252.1 2153.99C2253.75 2155.94 2255.41 2157.87 2257.2 2159.83C2259.99 2162.89 2259.78 2167.64 2256.71 2170.43C2255.27 2171.74 2253.47 2172.38 2251.66 2172.38Z" fill="#000072"/>
<path d="M2370.1 1812.82C2380.55 1811.91 2390.98 1811.16 2401.43 1810.86C2411.87 1810.46 2422.31 1810.55 2432.71 1810.83C2443.11 1811.23 2453.48 1811.92 2463.8 1813.06C2474.13 1814.24 2484.32 1815.69 2494.56 1818.09C2495.89 1818.4 2496.72 1819.73 2496.41 1821.06C2496.13 1822.26 2495.02 1823.05 2493.83 1822.97L2493.71 1822.96C2483.77 1822.3 2473.55 1822.5 2463.5 1823.01C2453.42 1823.55 2443.38 1824.53 2433.4 1825.79C2423.42 1827.16 2413.5 1828.71 2403.68 1830.72C2393.84 1832.63 2384.1 1834.98 2374.43 1837.45L2374.29 1837.48C2367.57 1839.2 2360.74 1835.14 2359.02 1828.43C2357.31 1821.71 2361.37 1814.88 2368.08 1813.17C2368.73 1813 2369.45 1812.89 2370.1 1812.82Z" fill="#000072"/>
<path d="M1846.15 1982.28C1836.89 1982.28 1829.16 1975.01 1828.69 1965.66C1828.19 1956.01 1835.62 1947.79 1845.28 1947.3C1923.93 1943.32 1982.51 1928.94 1990.23 1926.97C1991.8 1926.53 1993.43 1926.29 1995.03 1926.29C2004.69 1926.29 2012.53 1934.13 2012.53 1943.79C2012.53 1951.71 2007.27 1958.4 2000.05 1960.56C1999.78 1960.65 1999.52 1960.72 1999.25 1960.79C1992.4 1962.55 1930.17 1978.05 1847.05 1982.26C1846.75 1982.27 1846.45 1982.28 1846.15 1982.28Z" fill="#000072"/>
<path d="M1947.23 2133.62C1822.32 2133.62 1721.6 2058.16 1717.93 1961.82C1717.77 1957.69 1721 1954.2 1725.14 1954.04C1729.07 1953.96 1732.75 1957.11 1732.92 1961.25C1736.27 2049.5 1830.42 2118.62 1947.23 2118.62C2062.6 2118.62 2199.18 2011.24 2199.18 1920.52C2199.18 1909.53 2197.1 1899.02 2192.99 1889.27C2191.38 1885.45 2193.17 1881.06 2196.99 1879.45C2200.84 1877.84 2205.21 1879.64 2206.82 1883.45C2211.7 1895.05 2214.17 1907.52 2214.17 1920.51C2214.18 2020.1 2071.97 2133.62 1947.23 2133.62Z" fill="#000072"/>
<path d="M2481.1 555.232C2477.4 555.232 2473.67 554.063 2470.5 551.643L2463.61 546.343C2455.93 540.471 2454.47 529.488 2460.34 521.809C2466.22 514.136 2477.18 512.666 2484.87 518.54L2491.73 523.821C2499.41 529.685 2500.89 540.667 2495.02 548.35C2491.58 552.861 2486.37 555.232 2481.1 555.232Z" fill="#000072"/>
<path d="M1183.58 1254.53L1174.43 1243.64L1169.91 1238.21L1165.88 1232.41L1157.96 1220.82L1151.11 1208.64C1142.39 1192.26 1135.33 1175.21 1130.56 1157.66C1125.62 1140.18 1122.29 1122.43 1120.54 1104.62C1118.86 1086.81 1118.45 1068.94 1120.05 1051.31C1120.95 1068.96 1123.86 1086.38 1127.94 1103.37C1132.08 1120.35 1137.71 1136.85 1144.67 1152.57C1151.47 1168.37 1160.25 1183.11 1170.15 1196.66L1177.78 1206.63L1186.22 1215.82L1190.43 1220.38L1195.05 1224.51L1204.2 1232.74L1205.2 1233.64C1211.39 1239.2 1211.89 1248.73 1206.32 1254.91C1200.76 1261.1 1191.24 1261.61 1185.05 1256.04C1184.54 1255.59 1184.01 1255.04 1183.58 1254.53Z" fill="#000072"/>
<path d="M1247.77 1052.07C1244.82 1036.54 1242.42 1021.04 1242.25 1005.49C1241.76 997.759 1242.31 990.017 1242.45 982.351C1243.14 974.683 1243.53 967.048 1244.77 959.507C1246.82 944.405 1250.03 929.571 1254.4 915.171C1258.73 900.779 1264.03 886.709 1270.77 873.455C1266.35 887.632 1263.55 902.171 1261.73 916.724C1259.89 931.272 1259.26 945.892 1259.74 960.345C1259.78 967.569 1260.64 974.757 1261.19 981.886C1262.29 988.986 1262.95 996.083 1264.61 1003.01C1267.13 1017 1271.69 1030.39 1276.49 1043.41L1276.72 1044.04C1279.6 1051.86 1275.6 1060.52 1267.79 1063.4C1259.98 1066.28 1251.31 1062.28 1248.43 1054.47C1248.15 1053.7 1247.92 1052.84 1247.77 1052.07Z" fill="#000072"/>
<path d="M1439.28 1000.28C1436.81 989.345 1434.67 978.435 1433.55 967.41C1432.16 956.45 1431.94 945.391 1432.05 934.5C1432.31 923.582 1433.37 912.754 1435.17 902.137C1437.01 891.541 1439.5 881.065 1443.37 871.195C1441.93 881.669 1441.99 892.181 1442.66 902.543C1443.38 912.907 1444.82 923.136 1446.99 933.146C1449.31 943.134 1451.88 952.961 1455.49 962.426C1458.83 971.945 1463.07 981.088 1467.46 990.009L1467.6 990.28C1471.28 997.773 1468.2 1006.84 1460.71 1010.52C1453.22 1014.21 1444.15 1011.13 1440.46 1003.64C1439.94 1002.57 1439.53 1001.39 1439.28 1000.28Z" fill="#000072"/>
<path d="M1680.78 1124.1C1671.04 1116.27 1661.63 1108.21 1653.27 1099.19C1644.73 1090.38 1637.09 1080.85 1630.11 1071.02C1623.09 1061.22 1616.92 1050.9 1611.49 1040.32C1606.08 1029.74 1601.33 1018.85 1597.9 1007.62C1603.62 1017.85 1610.45 1027.29 1617.77 1036.22C1625.09 1045.14 1632.96 1053.52 1641.4 1061.15C1649.8 1068.8 1658.58 1075.91 1667.9 1082.09C1677.04 1088.5 1686.86 1093.72 1696.62 1098.63L1697.03 1098.83C1704.49 1102.58 1707.49 1111.66 1703.75 1119.11C1700 1126.57 1690.92 1129.58 1683.47 1125.83C1682.52 1125.35 1681.58 1124.74 1680.78 1124.1Z" fill="#000072"/>
<path d="M1906.89 859.888C1899.15 870.54 1894.91 882.696 1892.88 894.756C1890.82 906.841 1891.26 918.962 1893.11 930.542L1893.13 929.89C1893.13 938.174 1886.42 944.89 1878.13 944.89C1869.85 944.89 1863.13 938.174 1863.13 929.89L1863.16 929.104C1866.42 914.929 1871.51 901.316 1878.9 889.329C1886.21 877.378 1895.69 866.877 1906.89 859.888Z" fill="#000072"/>
<path d="M1747.13 965.388C1750.63 980.522 1755.91 995.11 1762.18 1009.08C1768.51 1023.03 1776.13 1036.26 1784.86 1048.42C1793.43 1060.73 1803.88 1071.39 1814.92 1080.72L1823.43 1087.38C1826.41 1089.38 1829.51 1091.19 1832.5 1093.1L1837 1095.92L1841.81 1098.19L1851.31 1102.73L1852.67 1103.38C1860.18 1106.97 1863.36 1115.98 1859.77 1123.5C1856.17 1131.02 1847.17 1134.2 1839.65 1130.6C1838.94 1130.27 1838.21 1129.83 1837.58 1129.4L1827.06 1122.13L1821.86 1118.5L1817.08 1114.33C1813.92 1111.54 1810.7 1108.84 1807.67 1105.97L1799.18 1096.8C1788.4 1084.21 1779.01 1070.71 1772.02 1056.18C1764.86 1041.77 1759.25 1026.82 1755.12 1011.6C1751.06 996.379 1748.16 980.913 1747.13 965.388Z" fill="#000072"/>
<path d="M1878.13 947.368C1868.47 947.368 1860.63 939.555 1860.63 929.89V929.846C1860.63 920.181 1868.47 912.346 1878.13 912.346C1887.79 912.346 1895.63 920.181 1895.63 929.846C1895.63 939.512 1887.79 947.368 1878.13 947.368Z" fill="#000072"/>
<path d="M2018.6 1014.36V1014.32V1013.16C2018.6 1012.11 2018.82 1011.09 2019.19 1010.17C2036.86 966.778 2061.89 926.724 2093.79 894.574C2069.75 932.975 2055.2 975.546 2048.02 1018.46L2048.6 1014.32V1014.36C2048.6 1022.65 2041.89 1029.36 2033.6 1029.36C2025.32 1029.36 2018.6 1022.65 2018.6 1014.36Z" fill="#000072"/>
<path d="M1340.8 1031.88C1339.34 1046.37 1340.2 1061 1342.36 1075.21C1344.57 1089.42 1348.06 1103.35 1353.21 1116.55C1358.35 1129.72 1364.38 1142.45 1372.13 1154.05C1375.63 1160.04 1380.08 1165.45 1384.18 1170.98C1388.37 1176.45 1393.29 1181.4 1397.73 1186.58L1398.73 1187.75C1404.15 1194.08 1403.42 1203.6 1397.09 1209.02C1390.76 1214.44 1381.23 1213.71 1375.81 1207.38C1375.32 1206.8 1374.83 1206.12 1374.43 1205.48C1370.31 1198.8 1365.83 1192.43 1362.15 1185.57C1358.55 1178.65 1354.72 1171.93 1351.9 1164.68C1345.54 1150.59 1341.25 1135.7 1338.11 1120.83C1334.95 1105.93 1333.71 1090.76 1333.83 1075.79C1334.01 1060.81 1335.58 1045.92 1339.44 1031.58C1339.54 1031.21 1339.92 1030.98 1340.29 1031.08C1340.63 1031.17 1340.84 1031.49 1340.8 1031.83L1340.8 1031.88Z" fill="#000072"/>
<path d="M1941.56 2040.16C1941.56 2040.16 1946.84 2098.95 1986.03 2155.48Z" fill="#FF0660"/>
<path d="M1986.04 2167.97C1982.08 2167.97 1978.18 2166.1 1975.76 2162.6C1935.15 2104.03 1929.34 2043.81 1929.11 2041.28C1928.5 2034.41 1933.57 2028.33 1940.44 2027.71C1947.3 2027.12 1953.39 2032.16 1954.01 2039.03C1954.1 2039.96 1959.73 2095.61 1996.3 2148.35C2000.23 2154.02 1998.83 2161.81 1993.15 2165.75C1990.98 2167.25 1988.5 2167.97 1986.04 2167.97Z" fill="#000072"/>
<path d="M1854.89 2015.29C1854.89 2015.29 1818.71 2057.5 1817.2 2126.84Z" fill="#FF0660"/>
<path d="M1817.21 2139.34C1817.11 2139.34 1817.02 2139.34 1816.93 2139.33C1810.03 2139.19 1804.56 2133.47 1804.71 2126.56C1806.29 2053.59 1843.8 2009.02 1845.4 2007.15C1849.9 2001.91 1857.78 2001.31 1863.02 2005.8C1868.26 2010.28 1868.87 2018.16 1864.4 2023.4C1863.86 2024.04 1831.08 2063.67 1829.7 2127.11C1829.55 2133.92 1823.98 2139.34 1817.21 2139.34Z" fill="#000072"/>
<path d="M1802.54 2121.92L1832.97 2126.91C1836.62 2127.51 1839.2 2130.81 1838.9 2134.5L1836.3 2166.22C1835.96 2170.37 1832.14 2173.34 1828.03 2172.64L1794.21 2166.87C1790.29 2166.2 1787.68 2162.43 1788.44 2158.52L1794.42 2127.58C1795.14 2123.81 1798.74 2121.3 1802.54 2121.92Z" fill="white"/>
<path d="M1829.21 2182.74C1828.26 2182.74 1827.3 2182.66 1826.34 2182.5L1792.53 2176.73C1787.96 2175.95 1783.98 2173.42 1781.34 2169.6C1778.7 2165.79 1777.74 2161.18 1778.61 2156.62L1784.6 2125.68C1786.36 2116.53 1794.95 2110.56 1804.15 2112.05L1834.59 2117.04C1843.32 2118.46 1849.59 2126.49 1848.87 2135.31L1846.27 2167.03C1845.88 2171.8 1843.49 2176.22 1839.71 2179.15C1836.69 2181.49 1832.98 2182.74 1829.21 2182.74ZM1798.81 2157.51L1826.6 2162.25L1828.72 2136.34L1803.7 2132.25L1798.81 2157.51Z" fill="#000072"/>
<path d="M1963.11 2156.52L1990.29 2141.94C1993.55 2140.19 1997.61 2141.24 1999.61 2144.35L2016.87 2171.1C2019.12 2174.6 2017.9 2179.28 2014.21 2181.23L1983.88 2197.24C1980.35 2199.1 1975.99 2197.7 1974.21 2194.14L1960.11 2165.96C1958.39 2162.52 1959.72 2158.34 1963.11 2156.52Z" fill="white"/>
<path d="M1980.58 2208.08C1978.82 2208.08 1977.06 2207.8 1975.33 2207.25C1970.91 2205.83 1967.34 2202.76 1965.26 2198.61L1951.17 2170.43C1947 2162.09 1950.17 2152.11 1958.38 2147.71L1985.56 2133.13C1993.36 2128.95 2003.22 2131.5 2008.02 2138.94L2025.27 2165.68C2027.86 2169.7 2028.65 2174.65 2027.44 2179.28C2026.23 2183.9 2023.12 2187.83 2018.89 2190.07L1988.55 2206.09C1986.05 2207.41 1983.33 2208.08 1980.58 2208.08ZM1970.32 2164L1981.83 2187.02L2006.75 2173.86L1992.66 2152.02L1970.32 2164Z" fill="#000072"/>
<path d="M1836.22 1689.74C1828.23 1706.67 1816.71 1721.16 1803.14 1733.97C1789.55 1746.71 1773.54 1757.4 1755.64 1764.58C1737.87 1771.95 1717.92 1775.3 1698.58 1773.33C1688.93 1772.33 1679.45 1770.15 1670.62 1766.57C1661.73 1763.16 1653.51 1758.41 1646.19 1752.61C1644.54 1751.31 1644.27 1748.92 1645.57 1747.28C1646.4 1746.23 1647.67 1745.74 1648.91 1745.85L1649.06 1745.87C1666.9 1747.72 1683.18 1749.27 1699.1 1747.77C1714.93 1746.58 1730.24 1743.21 1745.19 1737.68C1760.14 1732.2 1774.58 1724.49 1788.63 1715.5C1802.65 1706.51 1816.45 1696.17 1829.84 1685.14L1830.07 1684.95C1831.77 1683.54 1834.29 1683.79 1835.69 1685.49C1836.71 1686.72 1836.86 1688.38 1836.22 1689.74Z" fill="#000072"/>
<path d="M1698.99 1278.73C1693.44 1250.76 1698.51 1219.59 1714.73 1193.15C1722.93 1180.05 1734.05 1168.12 1747.97 1159.38C1761.8 1150.6 1778.52 1145.29 1795.53 1144.87C1812.55 1144.44 1829.71 1149.02 1844.29 1157.27C1859.03 1165.36 1871.22 1176.94 1880.61 1189.99C1899.42 1216.21 1907.34 1248.33 1904.93 1278.73C1904.27 1287.01 1897.03 1293.19 1888.75 1292.54C1881.43 1291.95 1875.75 1286.23 1874.99 1279.19L1874.94 1278.73C1872.25 1254.13 1864.31 1230.68 1850.29 1212.41C1843.35 1203.32 1834.94 1195.71 1825.69 1190.2C1816.35 1184.82 1806.13 1181.67 1795.53 1181.22C1774.37 1180.37 1752.77 1191.09 1736.5 1209.25C1728.2 1218.18 1721.37 1228.93 1715.83 1240.64C1710.26 1252.38 1706.31 1265.17 1703.28 1278.73L1703.26 1278.79C1703 1279.96 1701.83 1280.7 1700.66 1280.44C1699.79 1280.25 1699.16 1279.56 1698.99 1278.73Z" fill="#000072"/>
<path d="M1544.34 1327.57C1537.56 1315.43 1530.12 1304.3 1521.44 1294.63C1512.79 1284.99 1503.19 1276.63 1492.68 1270.44C1471.91 1257.67 1448.16 1253.54 1428.11 1260.4C1418.08 1263.85 1409.18 1269.79 1401.77 1277.6C1394.47 1285.52 1388.58 1295.21 1384.51 1305.9C1376.28 1327.41 1375.36 1352.15 1379.8 1376.5L1379.88 1376.94C1381.37 1385.11 1375.95 1392.94 1367.77 1394.43C1360.55 1395.74 1353.6 1391.66 1351.05 1385.05C1340.07 1356.59 1338.51 1323.54 1349.06 1293.05C1354.35 1277.87 1362.73 1263.29 1374.55 1251.34C1386.17 1239.27 1401.32 1229.99 1417.75 1225.55C1434.18 1221.11 1451.71 1221.42 1467.48 1225.91C1483.31 1230.31 1497.37 1238.57 1508.97 1248.8C1532.05 1269.52 1545.8 1297.95 1548.44 1326.35C1548.56 1327.55 1547.67 1328.61 1546.47 1328.72C1545.58 1328.81 1544.77 1328.35 1544.36 1327.62L1544.34 1327.57Z" fill="#000072"/>
<path d="M2183.13 2194.73C2179.87 2194.73 2176.57 2193.82 2173.63 2191.91C2173.2 2191.64 2172.76 2191.38 2172.33 2191.12L2171.33 2190.52C2163.06 2185.52 2160.41 2174.76 2165.42 2166.49C2170.43 2158.22 2181.21 2155.59 2189.45 2160.58L2190.2 2161.03C2191.03 2161.51 2191.86 2162.02 2192.67 2162.55C2200.78 2167.8 2203.09 2178.64 2197.83 2186.75C2194.48 2191.91 2188.86 2194.73 2183.13 2194.73Z" fill="#000072"/>
<path d="M2185.76 2196.35C2182.51 2196.35 2179.23 2195.46 2176.3 2193.57C2175.75 2193.21 2175.13 2192.81 2174.57 2192.49C2166.22 2187.62 2163.39 2176.91 2168.25 2168.56C2173.11 2160.2 2183.84 2157.37 2192.18 2162.24C2193.16 2162.81 2194.26 2163.51 2195.24 2164.14C2203.37 2169.37 2205.72 2180.19 2200.49 2188.32C2197.14 2193.52 2191.51 2196.35 2185.76 2196.35Z" fill="#000072"/>
<path d="M2547.04 1086.51C2537.24 1095.37 2525.06 1109.77 2518.71 1130.36L2659.4 1252.1L2680.55 1178.41C2683.17 1169.29 2681.71 1159.43 2676.34 1151.6C2663.21 1132.41 2633 1097.53 2578.35 1080.07C2567.5 1076.6 2555.5 1078.87 2547.04 1086.51Z" fill="#4A81FD"/>
<path d="M2667.34 1278.81L2501.49 1135.29L2504.38 1125.94C2511.83 1101.78 2526.22 1085.11 2536.98 1075.38V1075.38C2549.23 1064.32 2566.84 1060.64 2582.92 1065.78C2641.79 1084.6 2674.48 1122.32 2688.72 1143.13C2696.59 1154.63 2698.87 1169 2694.97 1182.56L2667.34 1278.81ZM2536.41 1125.84L2651.46 1225.4L2666.13 1174.28C2667.55 1169.34 2666.76 1164.16 2663.97 1160.07C2651.9 1142.43 2624.13 1110.45 2573.78 1094.36C2567.83 1092.46 2561.44 1093.72 2557.1 1097.64C2550.55 1103.56 2542.2 1112.91 2536.41 1125.84Z" fill="#000072"/>
<path d="M2660.26 1441.98C2603.85 1559.35 2476.93 1615.47 2376.79 1567.33C2276.64 1519.2 2241.19 1385.03 2297.6 1267.67C2354.01 1150.31 2480.92 1094.18 2581.07 1142.32C2681.22 1190.45 2716.67 1324.62 2660.26 1441.98Z" fill="#4A81FD"/>
<g opacity="0.2">
<path d="M2432.86 1524.82C2332.72 1476.69 2297.26 1342.52 2353.67 1225.16C2367.26 1196.89 2384.96 1172.22 2405.37 1151.66C2361.27 1175.89 2322.54 1215.78 2297.6 1267.67C2241.19 1385.04 2276.64 1519.2 2376.79 1567.33C2452.81 1603.88 2544.24 1580.29 2608.56 1515.48C2552.92 1546.05 2488.73 1551.68 2432.86 1524.82Z" fill="#000072"/>
</g>
<path d="M2453.22 1599.66C2424.47 1599.66 2396.37 1593.39 2370.29 1580.85C2317.83 1555.64 2280.08 1508.21 2263.98 1447.29C2248.12 1387.25 2255.25 1321.15 2284.08 1261.17C2312.9 1201.19 2360.06 1154.33 2416.87 1129.21C2474.49 1103.73 2535.11 1103.59 2587.57 1128.8C2640.02 1154.01 2677.78 1201.44 2693.88 1262.36C2709.74 1322.4 2702.61 1388.5 2673.78 1448.48C2644.95 1508.46 2597.79 1555.32 2540.99 1580.44C2512.02 1593.25 2482.29 1599.66 2453.22 1599.66ZM2504.62 1140.03C2479.66 1140.03 2454.05 1145.57 2429 1156.65C2378.72 1178.88 2336.86 1220.62 2311.12 1274.17C2285.38 1327.71 2278.94 1386.48 2292.98 1439.63C2306.8 1491.92 2338.87 1532.47 2383.29 1553.81C2427.69 1575.16 2479.39 1574.87 2528.86 1553C2579.14 1530.77 2621 1489.03 2646.74 1435.48C2672.48 1381.93 2678.92 1323.17 2664.87 1270.02C2651.06 1217.73 2618.98 1177.18 2574.57 1155.84C2552.65 1145.3 2528.94 1140.03 2504.62 1140.03Z" fill="#000072"/>
<path d="M2664.67 1427.66C2617.53 1525.74 2511.46 1572.64 2427.77 1532.42C2344.08 1492.19 2314.45 1380.07 2361.6 1281.99C2408.74 1183.91 2514.8 1137.01 2598.49 1177.23C2682.18 1217.46 2711.81 1329.58 2664.67 1427.66Z" fill="#F9ED32"/>
<g opacity="0.2">
<path d="M2480.37 1489.91C2402.79 1449.68 2375.33 1337.56 2419.03 1239.48C2428.39 1218.46 2440.28 1199.81 2453.91 1183.85C2416.13 1203.97 2382.86 1237.75 2361.6 1281.99C2314.45 1380.07 2344.08 1492.19 2427.77 1532.42C2501.16 1567.69 2591.74 1535.96 2644.72 1461.49C2596.34 1504.12 2533.5 1517.46 2480.37 1489.91Z" fill="#000072"/>
</g>
<path d="M2491.65 1559.4C2467.63 1559.4 2444.15 1554.16 2422.36 1543.69C2378.53 1522.62 2346.99 1482.99 2333.54 1432.09C2320.28 1381.92 2326.24 1326.69 2350.33 1276.57C2374.41 1226.46 2413.82 1187.3 2461.28 1166.32C2509.43 1145.03 2560.08 1144.9 2603.91 1165.97C2647.73 1187.04 2679.28 1226.66 2692.73 1277.56C2705.99 1327.73 2700.02 1382.96 2675.93 1433.08C2651.85 1483.19 2612.44 1522.35 2564.98 1543.34C2540.78 1554.04 2515.94 1559.4 2491.65 1559.4ZM2534.6 1175.29C2513.74 1175.29 2492.33 1179.92 2471.39 1189.18C2429.37 1207.76 2394.38 1242.65 2372.86 1287.41C2351.35 1332.16 2345.97 1381.28 2357.71 1425.71C2369.26 1469.41 2396.07 1503.31 2433.19 1521.15C2470.32 1539 2513.53 1538.75 2554.87 1520.47C2596.9 1501.89 2631.89 1467 2653.4 1422.25C2674.92 1377.49 2680.3 1328.37 2668.56 1283.94C2657.01 1240.24 2630.2 1206.35 2593.08 1188.5C2574.75 1179.7 2554.94 1175.29 2534.6 1175.29Z" fill="#000072"/>
<path d="M2594.45 1383.8C2612.94 1345.32 2601.32 1301.34 2568.49 1285.56C2535.66 1269.78 2494.05 1288.18 2475.56 1326.65C2457.07 1365.13 2468.69 1409.11 2501.52 1424.89C2534.35 1440.67 2575.96 1422.27 2594.45 1383.8Z" fill="#F9ED32"/>
<path d="M2526.41 1443.01C2516.07 1443.01 2505.77 1440.81 2496.1 1436.17C2457.11 1417.43 2442.84 1365.88 2464.29 1321.25C2485.75 1276.62 2534.94 1255.57 2573.91 1274.3C2612.89 1293.04 2627.17 1344.59 2605.72 1389.22C2589.59 1422.78 2557.78 1443.01 2526.41 1443.01ZM2543.41 1292.41C2521.45 1292.41 2498.66 1307.45 2486.82 1332.08C2471.35 1364.28 2480.37 1400.87 2506.93 1413.64C2533.5 1426.41 2567.71 1410.59 2583.19 1378.39C2598.66 1346.19 2589.64 1309.6 2563.08 1296.84C2556.83 1293.83 2550.16 1292.41 2543.41 1292.41Z" fill="#000072"/>
<path d="M2642.18 1453.02C2643.41 1454.18 2637.5 1463.37 2624.47 1475.18C2617.85 1480.91 2609.6 1487.5 2599.4 1493.25C2589.32 1499.16 2577.48 1504.62 2564.33 1508.2C2551.21 1511.83 2538.2 1513.61 2526.35 1513.41C2514.52 1513.02 2503.89 1511.58 2495.41 1508.76C2478.31 1503.52 2469.61 1496.49 2470.37 1495.09C2471.3 1493.13 2481.28 1496.81 2497.53 1499.27C2505.62 1500.73 2515.42 1501.03 2526.13 1500.74C2536.89 1500.26 2548.61 1498.28 2560.6 1494.96C2572.62 1491.7 2583.65 1487.03 2593.36 1482.11C2603.18 1477.36 2611.48 1471.97 2618.53 1467.49C2632.39 1458.19 2640.69 1451.55 2642.18 1453.02Z" fill="#000072"/>
<path d="M2406.56 1424.52C2405.11 1425.27 2396.61 1412.98 2390.86 1389.79C2385.13 1366.84 2383.93 1332.61 2395.28 1297.79C2400.86 1280.45 2408.58 1264.74 2417.36 1251.63C2426.08 1238.47 2435.77 1227.96 2444.58 1220.04C2462.43 1204.25 2476.22 1198.67 2477.04 1200.11C2478.2 1201.88 2466.57 1210.28 2451.44 1226.93C2436.3 1243.46 2418.61 1269.41 2408.38 1301.98C2397.83 1334.39 2397.42 1365.86 2400.42 1388.01C2403.42 1410.27 2408.53 1423.67 2406.56 1424.52Z" fill="#000072"/>
<path d="M1900.91 2313.39C1894.82 2313.39 1888.55 2313.04 1882.26 2312.35C1791.42 2302.41 1698.11 2212.18 1650.57 2159.29C1646.81 2155.1 1644.9 2149.7 1645.2 2144.08C1645.5 2138.46 1647.97 2133.3 1652.16 2129.54C1656.03 2126.06 1661.03 2124.14 1666.24 2124.14C1672.21 2124.14 1677.92 2126.69 1681.91 2131.13C1755.96 2213.54 1830.66 2264.33 1886.85 2270.47C1891.3 2270.96 1895.76 2271.21 1900.11 2271.21C2006.99 2271.21 2075.13 2123.57 2161.4 1936.65L2161.65 1936.13C2190 1874.69 2219.32 1811.16 2252.83 1746.85C2289.03 1677.4 2324.33 1618.42 2360.77 1566.53C2364.71 1560.92 2371.16 1557.57 2378.02 1557.57C2382.37 1557.57 2386.55 1558.89 2390.12 1561.4C2394.72 1564.63 2397.79 1569.46 2398.76 1575C2399.73 1580.55 2398.48 1586.14 2395.25 1590.74C2359.9 1641.07 2325.54 1698.51 2290.19 1766.32C2257.18 1829.68 2228.06 1892.77 2199.9 1953.78C2107.16 2154.69 2033.92 2313.39 1900.91 2313.39Z" fill="#5A5E8C"/>
<path d="M2378.02 1565.07C2380.72 1565.07 2383.43 1565.87 2385.8 1567.53C2391.94 1571.84 2393.42 1580.3 2389.11 1586.43C2353.57 1637.04 2319.04 1694.75 2283.54 1762.85C2250.45 1826.37 2221.29 1889.54 2193.09 1950.64C2101.95 2148.1 2029.12 2305.89 1900.91 2305.89C1895.08 2305.89 1889.15 2305.56 1883.08 2304.9C1794.71 2295.23 1702.97 2206.38 1656.15 2154.27C1651.14 2148.7 1651.6 2140.12 1657.17 2135.11C1659.76 2132.78 1663 2131.64 1666.24 2131.64C1669.95 2131.64 1673.65 2133.15 1676.33 2136.14C1751.6 2219.9 1828.03 2271.58 1886.03 2277.92C1890.8 2278.45 1895.5 2278.7 1900.11 2278.7C2011.89 2278.7 2081.34 2128.01 2168.46 1939.27C2196.79 1877.88 2226.08 1814.41 2259.48 1750.31C2295.53 1681.14 2330.67 1622.44 2366.91 1570.84C2369.55 1567.08 2373.75 1565.07 2378.02 1565.07ZM2378.02 1550.07C2368.72 1550.07 2359.98 1554.61 2354.63 1562.21C2318 1614.38 2282.53 1673.64 2246.18 1743.38C2212.59 1807.84 2183.23 1871.46 2154.84 1932.98L2154.59 1933.51C2069.44 2117.99 2002.19 2263.71 1900.11 2263.71C1896.04 2263.71 1891.85 2263.47 1887.67 2263.01C1833.29 2257.06 1760.33 2207.17 1687.49 2126.11C1682.09 2120.09 1674.34 2116.64 1666.24 2116.64C1659.18 2116.64 1652.4 2119.24 1647.14 2123.96C1635.42 2134.49 1634.46 2152.59 1644.99 2164.3C1693.24 2218 1788.13 2309.6 1881.45 2319.81C1888 2320.52 1894.55 2320.89 1900.91 2320.89C2038.72 2320.89 2112.85 2160.27 2206.71 1956.92C2234.83 1896 2263.9 1833.01 2296.84 1769.78C2332.04 1702.27 2366.24 1645.11 2401.39 1595.05C2405.77 1588.81 2407.47 1581.23 2406.15 1573.71C2404.84 1566.2 2400.67 1559.64 2394.42 1555.26C2389.59 1551.86 2383.92 1550.07 2378.02 1550.07Z" fill="#000072"/>
<path d="M2199.93 2381.13L2199.7 2381.58C2199.7 2381.58 2205.35 2426.26 2159.59 2424.54C2130.92 2423.5 2113.33 2402.43 2111.16 2377.28C2092.75 2370.28 2069.01 2356.93 2064.44 2333.92C2030.08 2322.93 2019.9 2304.21 2021.26 2284.49L2006.34 2292.68C1992.45 2300.27 1975.27 2298.01 1963.83 2287.02C1956.5 2280.02 1952.7 2270.52 1952.7 2260.93C1952.7 2254.65 1954.33 2248.36 1957.63 2242.62C1985.58 2194.41 2058.66 2102.07 2180.39 2175.55L2180.07 2175.69C2181.11 2176.19 2182.15 2176.68 2183.15 2177.23L2183.37 2177.36C2290.55 2231.99 2251.43 2381.31 2251.43 2381.31C2253.92 2382.08 2225.93 2393.29 2199.93 2381.13Z" fill="#FFB78A"/>
<path d="M2199.93 2381.13L2199.7 2381.58C2199.7 2381.58 2205.35 2426.26 2159.59 2424.54C2130.92 2423.5 2113.33 2402.43 2111.16 2377.28C2092.75 2370.28 2069.01 2356.93 2064.44 2333.92C2030.08 2322.93 2019.9 2304.21 2021.26 2284.49L2006.34 2292.68C1992.45 2300.27 1975.27 2298.01 1963.83 2287.02C1956.5 2280.02 1952.7 2270.52 1952.7 2260.93C1952.7 2254.65 1954.33 2248.36 1957.63 2242.62C1985.58 2194.41 2058.66 2102.07 2180.39 2175.55L2180.07 2175.69C2181.11 2176.19 2182.15 2176.68 2183.15 2177.23L2183.37 2177.36C2290.55 2231.99 2251.43 2381.31 2251.43 2381.31C2253.92 2382.08 2225.93 2393.29 2199.93 2381.13Z" fill="#FFB78A"/>
<path d="M2162.16 2437.09C2161.16 2437.09 2160.15 2437.07 2159.12 2437.03C2129.03 2435.94 2105.59 2415.42 2099.8 2386.15C2075.92 2375.69 2060.34 2361.15 2054.16 2343.57C2027.62 2333.57 2015.69 2318.78 2011.09 2304.3C1992.55 2313.77 1970.25 2310.53 1955.17 2296.04C1945.66 2286.94 1940.2 2274.14 1940.2 2260.93C1940.2 2252.38 1942.48 2243.89 1946.8 2236.39C1963.97 2206.75 2001.48 2154.85 2059.84 2139.87C2099.72 2129.64 2142.45 2138.05 2186.85 2164.85C2187.28 2165.11 2187.69 2165.39 2188.08 2165.69C2188.43 2165.87 2188.78 2166.06 2189.13 2166.25C2189.23 2166.31 2189.35 2166.37 2189.45 2166.43C2285.65 2215.81 2272.7 2335.36 2265.92 2372.96C2268.71 2374.91 2270.64 2377.95 2271.14 2381.47C2271.87 2386.69 2269.25 2391.81 2264.58 2394.27C2252.98 2400.38 2235.01 2405.35 2211.25 2398.69C2209.75 2406.31 2206.49 2415.02 2199.75 2422.39C2190.81 2432.15 2178.18 2437.09 2162.16 2437.09ZM2021.26 2271.99C2023.6 2271.99 2025.94 2272.65 2027.99 2273.96C2031.84 2276.42 2034.04 2280.79 2033.72 2285.35C2032.99 2296.11 2035.76 2311.63 2068.25 2322.01C2072.58 2323.39 2075.82 2327.02 2076.7 2331.49C2080.31 2349.66 2102.62 2360.66 2115.6 2365.61C2120.09 2367.31 2123.2 2371.43 2123.61 2376.21C2124.99 2392.18 2135.35 2411.15 2160.04 2412.05C2169.8 2412.41 2176.92 2410.24 2181.23 2405.6C2187.52 2398.81 2187.74 2387.04 2187.29 2383.07C2187.02 2380.69 2187.43 2378.19 2188.5 2376.04L2188.72 2375.59C2191.74 2369.5 2199.06 2366.93 2205.23 2369.81C2217.86 2375.72 2229.41 2377.94 2239.75 2376.43C2243.43 2360.28 2268.67 2234.87 2177.7 2188.5C2177.42 2188.36 2177.14 2188.2 2176.88 2188.04C2176.37 2187.77 2175.52 2187.37 2174.67 2186.96C2173.52 2186.41 2172.47 2185.69 2171.56 2184.84C2133.99 2162.75 2098.49 2155.76 2066.05 2164.09C2016.53 2176.8 1983.64 2222.67 1968.45 2248.89C1966.33 2252.57 1965.2 2256.75 1965.2 2260.93C1965.2 2267.36 1967.85 2273.58 1972.47 2277.99C1980 2285.23 1991.19 2286.72 2000.33 2281.71L2015.24 2273.53C2017.12 2272.51 2019.19 2271.99 2021.26 2271.99Z" fill="#000072"/>
<path d="M2194.62 2392.45C2187.42 2387.06 2181.11 2381.13 2175.34 2374.96C2172.61 2372.05 2172.76 2367.47 2175.68 2364.74C2177.78 2362.78 2180.73 2362.31 2183.23 2363.28L2183.36 2363.33C2190.68 2366.17 2198.05 2368.44 2205.23 2369.81C2212.23 2371.14 2216.82 2377.89 2215.49 2384.89C2214.15 2391.88 2207.41 2396.47 2200.41 2395.14C2198.44 2394.77 2196.66 2393.96 2195.15 2392.84L2194.62 2392.45Z" fill="#000072"/>
<path d="M2099.48 2367.65C2109.97 2350.42 2126.24 2339.79 2142.47 2335.27C2142.93 2335.14 2143.4 2335.41 2143.53 2335.87C2143.62 2336.19 2143.51 2336.52 2143.28 2336.74C2130.99 2347.89 2123.69 2362.67 2122.97 2376.21C2122.58 2383.4 2116.44 2388.92 2109.25 2388.53C2102.06 2388.15 2096.55 2382.01 2096.93 2374.82C2097.05 2372.61 2097.71 2370.56 2098.78 2368.78L2099.48 2367.65Z" fill="#000072"/>
<path d="M2050.87 2330.48C2052.18 2323.92 2054.62 2317.86 2057.83 2312.67C2061.02 2307.47 2064.82 2303.02 2068.86 2299.14C2076.96 2291.38 2086.01 2285.74 2095.18 2280.89C2096.49 2280.2 2098.12 2280.7 2098.81 2282.01C2099.37 2283.06 2099.16 2284.31 2098.38 2285.13L2098.35 2285.16C2091.4 2292.41 2085.11 2300.19 2080.85 2308.42C2078.71 2312.51 2077.11 2316.68 2076.23 2320.71C2075.32 2324.75 2075.29 2328.61 2075.82 2332.12C2076.88 2339.09 2072.09 2345.61 2065.11 2346.67C2058.14 2347.73 2051.62 2342.93 2050.56 2335.96C2050.34 2334.46 2050.38 2332.99 2050.65 2331.59L2050.87 2330.48Z" fill="#000072"/>
<path d="M2067.53 2209.95C2062.88 2215.63 2058.53 2221.76 2054.52 2227.92C2050.53 2234.13 2046.78 2240.44 2043.66 2246.94C2040.57 2253.43 2037.78 2260 2036.03 2266.55C2034.29 2273.09 2033.4 2279.55 2033.73 2285.31C2034.13 2292.25 2028.83 2298.21 2021.88 2298.61C2014.94 2299.01 2008.98 2293.71 2008.58 2286.76C2008.53 2285.82 2008.58 2284.89 2008.73 2283.99L2008.78 2283.67C2010.36 2274.43 2013.62 2266.32 2017.46 2258.93C2021.34 2251.54 2026.03 2245.01 2030.9 2238.78C2035.79 2232.56 2041.13 2226.89 2046.61 2221.44C2052.14 2216.02 2057.78 2210.91 2063.88 2206.1C2065.04 2205.19 2066.71 2205.39 2067.62 2206.54C2068.41 2207.54 2068.37 2208.93 2067.59 2209.88L2067.53 2209.95Z" fill="#000072"/>
<path d="M1654.6 2020.17L2006.97 2516.37C2012.44 2524.06 2015.23 2533.53 2013.92 2542.87C2012.6 2552.29 2007.13 2561.71 1990.55 2561.71C1960.46 2561.71 1414.8 2534.42 1313.89 2529.35C1303.8 2528.85 1294.56 2523.67 1288.83 2515.34L1003.23 2099.79C998.111 2092.34 995.329 2083.52 995.408 2074.49L995.417 2073.68C995.773 2052.63 1010.85 2034.71 1031.54 2030.75C1102.64 2017.17 1383.45 1968.76 1622.92 2001.05C1635.67 2002.77 1647.15 2009.68 1654.6 2020.17Z" fill="#C0BECC"/>
<g opacity="0.6">
<path d="M1343.85 2526.65L1058.25 2111.09C1053.13 2103.65 1050.35 2094.83 1050.43 2085.79L1050.44 2084.99C1050.79 2063.93 1065.87 2046.01 1086.56 2042.06C1154.13 2029.15 1411.07 1984.8 1641.95 2008.13C1636.25 2004.45 1629.79 2001.98 1622.92 2001.05C1383.45 1968.76 1102.64 2017.17 1031.54 2030.75C1010.85 2034.71 995.773 2052.63 995.417 2073.68L995.408 2074.49C995.328 2083.52 998.111 2092.34 1003.23 2099.79L1288.83 2515.34C1294.56 2523.67 1303.8 2528.85 1313.89 2529.35C1322.23 2529.77 1333.67 2530.35 1347.55 2531.04C1346.22 2529.69 1344.95 2528.24 1343.85 2526.65Z" fill="white"/>
</g>
<g opacity="0.3">
<path d="M2013.93 2542.89C2012.62 2552.29 2007.15 2561.7 1990.55 2561.7C1960.48 2561.7 1414.8 2534.43 1313.91 2529.36C1303.82 2528.87 1294.55 2523.67 1288.86 2515.34L1345.14 2510.24C1572.57 2489.62 1708.81 2247.54 1608.43 2042.42L1636.02 2004.89C1643.39 2008.19 1649.81 2013.44 1654.6 2020.17L2006.97 2516.39C2012.44 2524.07 2015.24 2533.53 2013.93 2542.89Z" fill="#000072"/>
</g>
<path d="M1990.55 2576.71C1961.21 2576.71 1464.63 2551.93 1313.14 2544.34C1298.5 2543.6 1284.8 2535.94 1276.48 2523.84L990.869 2108.28C983.926 2098.18 980.308 2086.45 980.41 2074.35L980.42 2073.5C980.889 2045.42 1001.21 2021.28 1028.73 2016.02C1108.08 2000.86 1385.58 1953.92 1624.93 1986.19C1641.75 1988.46 1657.03 1997.68 1666.83 2011.49L2019.2 2507.68C2027.17 2518.9 2030.57 2532.13 2028.77 2544.95C2025.99 2564.84 2011.7 2576.71 1990.55 2576.71ZM1444.59 2005.07C1263.64 2005.07 1093.39 2034.21 1034.35 2045.49C1020.71 2048.09 1010.65 2060.06 1010.42 2073.94L1010.41 2074.67C1010.36 2080.52 1012.15 2086.28 1015.59 2091.28L1301.2 2506.84C1304.3 2511.35 1309.2 2514.1 1314.64 2514.37C1422.36 2519.77 1961.17 2546.71 1990.55 2546.71C1998.23 2546.71 1998.56 2544.35 1999.06 2540.79C1999.78 2535.66 1998.2 2529.93 1994.75 2525.06L1642.37 2028.86V2028.86C1637.35 2021.8 1629.54 2017.08 1620.91 2015.92C1563.32 2008.15 1503.38 2005.07 1444.59 2005.07Z" fill="#000072"/>
<path d="M1981.48 2573.98C1976.94 2573.98 1972.56 2571.5 1970.35 2567.19C1969.65 2565.83 1968.93 2564.63 1968.2 2563.63L1615.79 2067.34C1610.38 2059.74 1601.93 2054.66 1592.61 2053.41C1357.63 2021.68 1083.64 2068.01 1005.26 2082.96C1003.52 2083.3 1001.69 2083.82 999.868 2084.51C993.393 2086.94 986.196 2083.68 983.76 2077.22C981.328 2070.76 984.59 2063.55 991.05 2061.11C994.194 2059.93 997.393 2059.02 1000.55 2058.41C1079.89 2043.27 1357.23 1996.41 1595.95 2028.63C1612.1 2030.81 1626.76 2039.64 1636.16 2052.86L1988.53 2549.08C1989.93 2551.02 1991.31 2553.29 1992.58 2555.76C1995.74 2561.91 1993.32 2569.44 1987.18 2572.59C1985.35 2573.53 1983.4 2573.98 1981.48 2573.98Z" fill="#000072"/>
<path d="M1516.86 2137.3L1482.73 2148.86L1491.97 2181.03C1478.93 2183.84 1464.84 2194.07 1458.31 2222.85C1444.52 2283.61 1395.95 2320.85 1363.11 2329.58C1330.26 2338.3 1351.26 2416.86 1458.64 2371.41C1565.47 2326.19 1560.25 2210.18 1524.11 2186.44C1534.84 2153.72 1516.86 2137.3 1516.86 2137.3Z" fill="#F6DA1E"/>
<path d="M1399.61 2395.53C1376.82 2395.53 1362.78 2387.85 1355.01 2381.38C1342.48 2370.96 1336.6 2355.83 1339.68 2341.9C1342.09 2330.96 1349.89 2322.74 1360.54 2319.91C1387.49 2312.76 1435.21 2279.48 1448.56 2220.64C1454.77 2193.28 1467.57 2180.49 1479.75 2174.69L1473.12 2151.63C1471.65 2146.5 1474.46 2141.11 1479.52 2139.4L1513.65 2127.83C1517.09 2126.67 1520.91 2127.46 1523.6 2129.92C1524.47 2130.71 1543.68 2148.76 1535.53 2182.8C1551.3 2197.78 1559.77 2226.82 1556.92 2258.17C1554.59 2283.96 1540.71 2347.53 1462.53 2380.62C1436.52 2391.63 1415.84 2395.53 1399.61 2395.53ZM1494.98 2155.27L1501.58 2178.26C1502.35 2180.92 1501.98 2183.78 1500.55 2186.16C1499.13 2188.53 1496.79 2190.21 1494.08 2190.8C1481.35 2193.54 1472.59 2205.07 1468.06 2225.06C1452.65 2292.98 1398.38 2330.56 1365.67 2339.24C1362.2 2340.16 1360.03 2342.51 1359.21 2346.21C1358.12 2351.14 1359.72 2359.28 1367.79 2366C1375.7 2372.57 1399.99 2385.37 1454.74 2362.2C1522.95 2333.33 1535 2278.56 1537.01 2256.36C1539.79 2225.7 1529.86 2202.18 1518.62 2194.79C1514.84 2192.31 1513.2 2187.61 1514.61 2183.32C1520.24 2166.14 1516.5 2154.83 1513.26 2149.08L1494.98 2155.27Z" fill="#000072"/>
<path d="M1508.96 2198.55C1512.71 2210.68 1512.16 2223.51 1509.98 2235.82C1507.63 2248.16 1503.1 2260 1497.24 2271L1492.65 2279.16C1490.99 2281.79 1489.16 2284.31 1487.41 2286.88C1484.07 2292.14 1479.83 2296.69 1475.94 2301.49C1471.88 2306.15 1467.36 2310.38 1463.02 2314.73C1458.29 2318.68 1453.67 2322.71 1448.83 2326.45C1447.98 2327.1 1446.77 2326.94 1446.12 2326.1C1445.56 2325.38 1445.6 2324.39 1446.15 2323.71L1446.24 2323.6C1450.08 2318.9 1454.18 2314.52 1458.1 2310L1469.24 2296.01C1476.19 2286.4 1483.08 2276.77 1488.45 2266.31C1493.87 2255.92 1498.58 2245.17 1501.77 2233.9C1504.91 2222.68 1507.05 2210.91 1506.7 2199.08L1506.7 2198.93C1506.68 2198.29 1507.18 2197.76 1507.82 2197.75C1508.35 2197.73 1508.8 2198.07 1508.96 2198.55Z" fill="#000072"/>
<path d="M2369.11 1626.56C2362.46 1626.56 2355.75 1624.67 2349.8 1620.72C2333.69 1610.04 2329.29 1588.32 2339.97 1572.21L2356.79 1546.84C2367.46 1530.74 2389.18 1526.33 2405.3 1537.02C2421.41 1547.7 2425.81 1569.42 2415.13 1585.53L2398.31 1610.89C2391.58 1621.05 2380.45 1626.56 2369.11 1626.56Z" fill="#000072"/>
<g opacity="0.3">
<path d="M2183.56 2174.16L2183.33 2174.02C2182.34 2173.48 2181.3 2172.98 2180.26 2172.48L2180.57 2172.35C2174.84 2168.88 2169.24 2165.9 2163.72 2163.16C2192.78 2190.79 2234.63 2239.89 2231.16 2290.95C2225.88 2368.58 2171.62 2304.51 2143.73 2315.06C2115.85 2325.62 2035.95 2287.93 2041.98 2256.28C2048.01 2224.62 2049.52 2222.36 2049.52 2222.36C2049.52 2222.36 2020.13 2229.9 1999.02 2251C1986.26 2263.76 1971.31 2247.87 1961.47 2233.3C1960.19 2235.4 1958.95 2237.45 1957.81 2239.41C1954.51 2245.15 1952.88 2251.44 1952.88 2257.72C1952.88 2267.31 1956.68 2276.81 1964.01 2283.82C1975.45 2294.81 1992.63 2297.07 2006.52 2289.47L2021.44 2281.28C2020.08 2301 2030.26 2319.72 2064.62 2330.71C2069.19 2353.73 2092.93 2367.07 2111.34 2374.08C2113.51 2399.22 2131.1 2420.29 2159.77 2421.33C2205.53 2423.05 2199.88 2378.38 2199.88 2378.38L2200.11 2377.92C2226.11 2390.09 2254.1 2378.87 2251.61 2378.1C2251.61 2378.1 2290.73 2228.78 2183.56 2174.16Z" fill="#000072"/>
</g>
<path d="M1771.73 1342.15C1812.62 1323.52 1865.26 1360.86 1889.3 1425.54C1913.35 1490.23 1899.69 1557.77 1858.8 1576.4C1817.91 1595.03 1765.27 1557.69 1741.23 1493.01C1717.18 1428.32 1730.84 1360.78 1771.73 1342.15Z" fill="#000072"/>
<path d="M1782.31 1369.08C1797.41 1370.73 1809.39 1391.5 1809.05 1415.45C1808.72 1439.41 1796.21 1457.49 1781.11 1455.83C1766.01 1454.17 1754.03 1433.41 1754.37 1409.45C1754.7 1385.5 1767.21 1367.42 1782.31 1369.08Z" fill="white"/>
<path d="M1783.03 1458.65C1782.3 1458.65 1781.56 1458.6 1780.81 1458.52C1764.38 1456.72 1751.3 1434.69 1751.65 1409.42C1751.87 1393.72 1757.16 1379.79 1765.8 1372.15C1770.82 1367.72 1776.59 1365.73 1782.61 1366.38C1799.31 1368.21 1812.13 1389.78 1811.77 1415.49C1811.55 1431.18 1806.27 1445.11 1797.63 1452.75C1793.23 1456.63 1788.23 1458.65 1783.03 1458.65ZM1780.42 1371.69C1776.55 1371.69 1772.77 1373.24 1769.39 1376.22C1761.88 1382.86 1757.28 1395.3 1757.08 1409.49C1756.77 1432.05 1767.68 1451.63 1781.41 1453.13C1785.81 1453.61 1790.19 1452.08 1794.03 1448.68C1801.54 1442.04 1806.15 1429.6 1806.34 1415.41C1806.65 1392.86 1795.74 1373.28 1782.01 1371.77C1781.48 1371.72 1780.95 1371.69 1780.42 1371.69Z" fill="#000072"/>
<path d="M1866.62 1497.35C1874.38 1500.37 1878.57 1512.61 1875.97 1524.7C1873.38 1536.79 1864.98 1544.15 1857.22 1541.13C1849.46 1538.11 1845.28 1525.87 1847.87 1513.78C1850.47 1501.69 1858.86 1494.33 1866.62 1497.35Z" fill="#B199C5"/>
<path d="M1860.79 1544.53C1859.25 1544.53 1857.73 1544.24 1856.24 1543.66C1847.15 1540.13 1842.31 1526.75 1845.22 1513.21C1846.95 1505.14 1851.24 1498.58 1856.7 1495.64C1860.26 1493.71 1864.03 1493.43 1867.6 1494.82C1876.69 1498.36 1881.53 1511.73 1878.62 1525.27C1876.89 1533.34 1872.6 1539.91 1867.14 1542.85C1865.07 1543.97 1862.92 1544.53 1860.79 1544.53ZM1863.06 1499.39C1861.81 1499.39 1860.54 1499.73 1859.27 1500.41C1855.2 1502.61 1851.93 1507.82 1850.53 1514.35C1848.24 1524.99 1851.76 1536.09 1858.2 1538.6C1860.28 1539.4 1862.42 1539.23 1864.57 1538.07C1868.64 1535.87 1871.92 1530.66 1873.32 1524.13C1875.6 1513.49 1872.09 1502.39 1865.64 1499.88C1864.79 1499.55 1863.93 1499.39 1863.06 1499.39Z" fill="#000072"/>
<path d="M1477.47 1442.76C1515.82 1424.74 1565.88 1459.37 1589.27 1520.11C1612.66 1580.85 1600.53 1644.69 1562.18 1662.71C1523.82 1680.73 1473.77 1646.11 1450.37 1585.37C1426.98 1524.63 1439.11 1460.78 1477.47 1442.76Z" fill="#000072"/>
<path d="M1487.74 1468.04C1502 1469.44 1513.53 1488.89 1513.48 1511.48C1513.43 1534.08 1501.83 1551.26 1487.57 1549.87C1473.31 1548.47 1461.79 1529.02 1461.84 1506.43C1461.89 1483.83 1473.48 1466.65 1487.74 1468.04Z" fill="white"/>
<path d="M1489.19 1552.66C1488.57 1552.66 1487.94 1552.63 1487.31 1552.57C1471.46 1551.02 1459.08 1530.75 1459.12 1506.42C1459.16 1491.58 1464 1478.34 1472.1 1471.02C1476.82 1466.75 1482.32 1464.75 1488.01 1465.34C1503.86 1466.89 1516.25 1487.16 1516.19 1511.49C1516.16 1526.33 1511.31 1539.57 1503.22 1546.89C1499.02 1550.69 1494.21 1552.66 1489.19 1552.66ZM1486.16 1470.68C1482.49 1470.68 1478.91 1472.17 1475.74 1475.04C1468.76 1481.36 1464.58 1493.09 1464.55 1506.43C1464.51 1527.63 1474.96 1545.91 1487.84 1547.17C1491.97 1547.54 1496.02 1546.08 1499.58 1542.87C1506.55 1536.55 1510.74 1524.82 1510.76 1511.48C1510.81 1490.28 1500.37 1472 1487.48 1470.74C1487.04 1470.7 1486.6 1470.68 1486.16 1470.68Z" fill="#000072"/>
<path d="M1568.67 1588.08C1576.02 1590.84 1580.11 1602.34 1577.79 1613.77C1575.48 1625.2 1567.65 1632.23 1560.3 1629.47C1552.95 1626.71 1548.86 1615.21 1551.18 1603.78C1553.49 1592.35 1561.32 1585.32 1568.67 1588.08Z" fill="#B199C5"/>
<path d="M1563.56 1632.79C1562.15 1632.79 1560.73 1632.53 1559.35 1632.01C1550.66 1628.75 1545.91 1616.12 1548.52 1603.24C1550.07 1595.57 1554.07 1589.29 1559.22 1586.44C1562.59 1584.56 1566.2 1584.25 1569.62 1585.54C1578.31 1588.79 1583.06 1601.43 1580.45 1614.31C1578.9 1621.98 1574.9 1628.26 1569.75 1631.11C1567.74 1632.23 1565.65 1632.79 1563.56 1632.79ZM1565.42 1590.19C1564.23 1590.19 1563.04 1590.52 1561.85 1591.18C1558.07 1593.28 1555.07 1598.19 1553.84 1604.31C1551.81 1614.3 1555.21 1624.66 1561.25 1626.93C1563.16 1627.64 1565.14 1627.46 1567.12 1626.36C1570.9 1624.27 1573.9 1619.36 1575.13 1613.23C1577.16 1603.24 1573.76 1592.88 1567.72 1590.62C1566.96 1590.33 1566.19 1590.19 1565.42 1590.19Z" fill="#000072"/>
</g>
<defs>
<clipPath id="clip0_4_3">
<rect width="4000" height="4000" fill="white"/>
</clipPath>
</defs>
</svg>
