<svg width="480" height="480" viewBox="0 0 480 480" fill="none" xmlns="http://www.w3.org/2000/svg">
<path d="M363.071 271.068C364.364 266.349 364.99 261.474 364.93 256.585C364.986 249.977 364.273 243.385 362.806 236.94C361.551 231.426 359.456 226.133 356.592 221.246C354.07 217.104 350.662 213.562 346.608 210.87C342.726 208.307 338.154 206.967 333.491 207.026C329.15 206.961 324.858 207.948 320.989 209.904C317.12 211.859 313.792 214.722 311.293 218.244C308.625 222.09 306.698 226.394 305.611 230.936C304.2 236.242 303.521 241.713 303.593 247.2C303.593 261.904 306.266 272.929 311.612 280.274C316.958 287.619 324.817 291.306 335.191 291.334C339.533 291.402 343.84 290.558 347.83 288.859C351.483 287.378 354.712 285.026 357.229 282.012C359.894 278.784 361.881 275.059 363.071 271.057M343.688 252.203C343.719 254.257 343.505 256.308 343.05 258.312C342.681 260.08 342.093 261.796 341.298 263.421C340.562 264.744 339.632 265.951 338.536 267.002C337.519 267.836 336.245 268.3 334.925 268.319C333.428 268.326 331.978 267.803 330.836 266.844C329.571 265.621 328.577 264.15 327.915 262.525C326.971 260.463 326.31 258.284 325.95 256.047C325.529 253.205 325.334 250.335 325.366 247.463C325.366 237.14 327.844 231.979 332.801 231.979C340.059 231.986 343.688 238.731 343.688 252.213V252.203Z" fill="#FE71CF"/>
<path d="M338.536 267.013C339.632 265.962 340.562 264.755 341.298 263.431C342.093 261.807 342.681 260.091 343.05 258.323C343.505 256.318 343.719 254.268 343.688 252.213C343.688 238.731 340.076 231.99 332.854 231.99C327.898 231.99 325.419 237.151 325.419 247.473C325.387 250.346 325.583 253.216 326.003 256.058C326.363 258.295 327.024 260.474 327.968 262.536C328.63 264.161 329.624 265.631 330.889 266.855C332.031 267.814 333.482 268.337 334.978 268.329C336.28 268.299 337.533 267.835 338.536 267.013Z" fill="black"/>
<path d="M333.491 207.026C338.154 206.967 342.726 208.307 346.608 210.87C350.662 213.562 354.07 217.104 356.592 221.246C359.456 226.133 361.551 231.426 362.806 236.94C364.273 243.385 364.986 249.977 364.93 256.585C364.99 261.474 364.364 266.349 363.071 271.068C361.881 275.069 359.894 278.794 357.229 282.022C354.712 285.037 351.483 287.388 347.83 288.869C343.84 290.568 339.533 291.412 335.191 291.344C324.782 291.344 316.922 287.658 311.612 280.284C306.301 272.911 303.628 261.883 303.593 247.199C303.52 241.709 304.199 236.235 305.611 230.926C306.698 226.383 308.625 222.08 311.293 218.233C313.792 214.711 317.12 211.848 320.989 209.893C324.858 207.938 329.15 206.95 333.491 207.015V207.026ZM334.925 268.329C336.245 268.311 337.519 267.846 338.536 267.012C339.632 265.962 340.562 264.755 341.298 263.431C342.093 261.807 342.681 260.091 343.05 258.323C343.505 256.318 343.719 254.268 343.688 252.213C343.688 238.731 340.076 231.989 332.854 231.989C327.898 231.989 325.419 237.151 325.419 247.473C325.387 250.346 325.583 253.216 326.003 256.058C326.363 258.295 327.024 260.474 327.968 262.536C328.63 264.161 329.624 265.631 330.889 266.854C332.017 267.802 333.447 268.324 334.925 268.329Z" stroke="black" stroke-width="8" stroke-linecap="round" stroke-linejoin="round"/>
<path d="M356.592 221.246C354.07 217.104 350.662 213.562 346.608 210.87C342.726 208.307 338.154 206.967 333.491 207.026C329.15 206.961 324.858 207.948 320.989 209.904C317.12 211.859 313.792 214.722 311.293 218.244C308.625 222.09 306.698 226.394 305.611 230.936C304.2 236.242 303.521 241.713 303.593 247.2C303.593 261.904 306.266 272.929 311.612 280.274C316.958 287.619 324.817 291.306 335.191 291.334C339.533 291.402 343.84 290.558 347.83 288.859C351.483 287.378 354.712 285.026 357.229 282.012C359.894 278.784 361.881 275.059 363.071 271.057C364.364 266.338 364.99 261.464 364.93 256.574C364.986 249.967 364.273 243.375 362.806 236.93C361.551 231.415 359.456 226.123 356.592 221.235M343.05 258.312C342.681 260.08 342.093 261.796 341.298 263.421C340.562 264.744 339.632 265.951 338.536 267.002C337.519 267.836 336.245 268.3 334.925 268.319C333.428 268.326 331.978 267.803 330.836 266.844C329.571 265.621 328.577 264.15 327.915 262.525C326.971 260.463 326.31 258.284 325.95 256.047C325.529 253.205 325.334 250.335 325.366 247.463C325.366 237.14 327.844 231.979 332.801 231.979C340.023 231.979 343.634 238.72 343.634 252.203C343.684 254.258 343.488 256.313 343.05 258.323V258.312Z" fill="#3DDBFF"/>
<path d="M300.831 207.026H278.633L265.038 236.887L254.417 207.71L233.441 209.28V290.017H255.001V258.849L266.844 277.746L281.182 253.045V291.334H300.831V207.026Z" fill="#FFFB97"/>
<path d="M300.831 291.344H281.182V253.056L266.844 277.746L255.001 258.786V289.964H233.441V209.28L254.47 207.7L265.091 236.877L278.633 207.015H300.831V291.344Z" stroke="black" stroke-width="8" stroke-linecap="round" stroke-linejoin="round"/>
<path d="M255.001 258.849L266.844 277.746L281.182 253.045V291.334H300.831V207.068H278.633L265.038 236.887L254.417 207.71L233.441 209.28V290.017H255.001V258.849Z" fill="#98F170"/>
<path d="M207.419 207.026V243.734L192.496 209.554H171.785V291.344H193.877L191.753 262.378L208.056 289.396L228.077 290.712V208.342L207.419 207.026Z" fill="#06FFA1"/>
<path d="M228.13 290.712L208.109 289.396L191.806 262.378L193.93 291.344H171.785V209.554H192.496L207.419 243.734V207.026L228.13 208.342V290.712Z" stroke="black" stroke-width="8" stroke-linecap="round" stroke-linejoin="round"/>
<path d="M228.13 208.342L207.419 207.026V243.734L192.496 209.554H171.785V291.344H193.877L191.753 262.378L208.056 289.396L228.077 290.712L228.13 208.342Z" fill="#FEF700"/>
<path d="M166.156 221.246C163.657 217.087 160.244 213.541 156.172 210.87C152.307 208.313 147.754 206.973 143.108 207.026C138.672 206.936 134.285 207.969 130.363 210.028C126.578 211.952 123.33 214.774 120.91 218.244C120.323 218.995 119.79 219.787 119.317 220.614C117.441 223.838 116.046 227.315 115.175 230.936C113.73 236.241 113.015 241.715 113.051 247.21C113.051 261.851 115.741 272.876 121.123 280.284C125.69 286.604 132.151 290.203 140.506 291.081C141.916 291.248 143.335 291.336 144.755 291.344C149.114 291.415 153.439 290.571 157.447 288.869C161.063 287.35 164.266 285.004 166.793 282.022C169.458 278.794 171.445 275.069 172.635 271.068C173.951 266.353 174.577 261.476 174.494 256.585C174.55 249.977 173.837 243.385 172.369 236.94C171.115 231.426 169.02 226.133 166.156 221.246ZM140.559 232.358C141.149 232.118 141.78 231.993 142.418 231.989C149.64 231.989 153.251 238.731 153.251 252.213C153.251 254.263 153.056 256.309 152.667 258.323C152.283 260.094 151.677 261.81 150.862 263.431C150.126 264.755 149.196 265.962 148.1 267.012C147.066 267.852 145.773 268.317 144.436 268.329C143.03 268.343 141.662 267.878 140.559 267.012C140.559 266.907 140.559 266.854 140.453 266.854C139.164 265.64 138.15 264.168 137.479 262.536C136.534 260.474 135.874 258.295 135.514 256.058C135.074 253.218 134.861 250.347 134.877 247.473C134.877 238.555 136.771 233.517 140.559 232.358Z" fill="#01CDFF"/>
<path d="M142.418 231.99C141.78 231.993 141.149 232.118 140.559 232.358C136.771 233.517 134.877 238.555 134.877 247.473C134.861 250.347 135.074 253.218 135.514 256.058C135.874 258.295 136.534 260.474 137.479 262.536C138.15 264.168 139.164 265.64 140.453 266.855C140.527 266.855 140.559 266.855 140.559 267.013C141.662 267.878 143.03 268.343 144.436 268.329C145.773 268.317 147.066 267.852 148.1 267.013C149.196 265.962 150.126 264.755 150.862 263.431C151.677 261.81 152.283 260.094 152.667 258.323C153.056 256.309 153.251 254.263 153.251 252.213C153.251 238.731 149.64 231.99 142.418 231.99Z" fill="black"/>
<path d="M144.436 268.329C145.773 268.317 147.066 267.852 148.1 267.012C149.196 265.962 150.126 264.755 150.862 263.431C151.677 261.81 152.283 260.094 152.667 258.323C153.056 256.309 153.251 254.263 153.251 252.213C153.251 238.731 149.64 231.989 142.418 231.989C141.78 231.993 141.149 232.118 140.559 232.358C136.771 233.517 134.877 238.555 134.877 247.473C134.861 250.347 135.074 253.218 135.514 256.058C135.874 258.295 136.534 260.474 137.479 262.536C138.15 264.168 139.164 265.64 140.453 266.854C140.527 266.854 140.559 266.854 140.559 267.012C141.662 267.878 143.03 268.343 144.436 268.329ZM143.108 207.026C147.754 206.973 152.307 208.313 156.172 210.87C160.244 213.541 163.657 217.087 166.156 221.246C169.02 226.133 171.115 231.426 172.369 236.94C173.837 243.385 174.55 249.977 174.494 256.585C174.577 261.476 173.951 266.353 172.635 271.068C171.445 275.069 169.458 278.794 166.793 282.022C164.266 285.004 161.063 287.35 157.447 288.869C153.455 290.564 149.149 291.407 144.808 291.344C143.388 291.336 141.969 291.248 140.559 291.081C132.204 290.196 125.743 286.597 121.176 280.284C115.794 272.869 113.104 261.844 113.104 247.21C113.068 241.715 113.783 236.241 115.228 230.936C116.099 227.315 117.495 223.838 119.37 220.614C119.843 219.787 120.376 218.995 120.963 218.244C123.383 214.774 126.631 211.952 130.416 210.028C134.322 207.978 138.69 206.945 143.108 207.026Z" stroke="black" stroke-width="8" stroke-linecap="round" stroke-linejoin="round"/>
<path d="M166.793 282.022C169.458 278.794 171.445 275.069 172.635 271.068C173.951 266.353 174.577 261.476 174.494 256.585C174.55 249.977 173.837 243.385 172.369 236.94C171.115 231.426 169.02 226.133 166.156 221.246C163.657 217.087 160.244 213.541 156.172 210.87C152.307 208.313 147.754 206.973 143.108 207.026C138.672 206.936 134.285 207.969 130.363 210.028C126.578 211.952 123.33 214.774 120.91 218.244C120.323 218.995 119.79 219.787 119.317 220.614C117.441 223.838 116.046 227.315 115.175 230.936C113.73 236.241 113.015 241.715 113.051 247.21C113.051 261.851 115.741 272.876 121.123 280.284C125.69 286.604 132.151 290.203 140.506 291.081C141.916 291.248 143.335 291.336 144.755 291.344C149.114 291.415 153.439 290.571 157.447 288.869C161.063 287.35 164.266 285.004 166.793 282.022ZM140.559 232.358C141.149 232.118 141.78 231.993 142.418 231.989C149.64 231.989 153.251 238.731 153.251 252.213C153.251 254.263 153.056 256.309 152.667 258.323C152.283 260.094 151.677 261.81 150.862 263.431C150.126 264.755 149.196 265.962 148.1 267.012C147.066 267.852 145.773 268.317 144.436 268.329C143.03 268.343 141.662 267.878 140.559 267.012C140.559 266.907 140.559 266.854 140.453 266.854C139.164 265.64 138.15 264.168 137.479 262.536C136.534 260.474 135.874 258.295 135.514 256.058C135.074 253.218 134.861 250.347 134.877 247.473C134.877 238.555 136.771 233.517 140.559 232.358Z" fill="#FFA85A"/>
<path d="M115.759 236.94C114.486 231.423 112.373 226.131 109.493 221.246C107.002 217.097 103.61 213.553 99.5619 210.87C95.6969 208.313 91.1436 206.973 86.4979 207.026C82.0613 206.936 77.6747 207.969 73.7526 210.028C69.966 211.993 66.6932 214.806 64.1936 218.244C61.5273 222.085 59.6174 226.391 58.5645 230.936C57.1563 236.242 56.4775 241.713 56.5465 247.199C56.5465 261.876 59.2548 272.901 64.6716 280.274C70.0883 287.647 77.9303 291.334 88.1973 291.334C92.574 291.407 96.9171 290.564 100.943 288.858C104.559 287.34 107.762 284.994 110.289 282.012C112.915 278.778 114.865 275.057 116.025 271.068C117.341 266.353 117.967 261.476 117.883 256.585C117.939 249.977 117.227 243.385 115.759 236.94ZM96.6411 252.213C96.6653 254.264 96.4694 256.312 96.0569 258.323C95.6451 260.086 95.0396 261.799 94.2513 263.431C93.514 264.768 92.5635 265.977 91.4367 267.012C90.4431 267.852 89.1837 268.318 87.8787 268.329C86.3949 268.354 84.9554 267.828 83.8427 266.855C82.569 265.616 81.542 264.151 80.8156 262.536C79.9111 260.467 79.2861 258.289 78.957 256.058C78.499 253.219 78.2682 250.348 78.2666 247.473C78.2666 237.151 80.7979 231.989 85.8607 231.989C93.0547 231.989 96.6482 238.731 96.6411 252.213Z" fill="#BA67FF"/>
<path d="M96.0569 258.323C96.4694 256.312 96.6653 254.265 96.6411 252.213C96.6411 238.731 93.0476 231.99 85.8607 231.99C80.7979 231.99 78.2666 237.151 78.2666 247.473C78.2682 250.348 78.499 253.219 78.9569 256.058C79.2861 258.289 79.9111 260.467 80.8156 262.536C81.542 264.151 82.5689 265.616 83.8426 266.855C84.9554 267.828 86.3949 268.354 87.8787 268.329C89.1837 268.318 90.443 267.852 91.4367 267.013C92.5635 265.977 93.514 264.768 94.2513 263.431C95.0396 261.799 95.6451 260.086 96.0569 258.323Z" fill="black"/>
<path d="M86.4979 207.026C91.1436 206.973 95.6969 208.313 99.5619 210.87C103.61 213.553 107.002 217.097 109.493 221.246C112.373 226.131 114.486 231.423 115.759 236.94C117.227 243.385 117.939 249.977 117.883 256.585C117.967 261.476 117.341 266.353 116.025 271.068C114.834 275.069 112.848 278.794 110.183 282.022C107.656 285.004 104.453 287.35 100.836 288.869C96.8109 290.574 92.4678 291.418 88.0911 291.344C77.7178 291.344 69.8759 287.658 64.5654 280.284C59.2194 272.911 56.5465 261.883 56.5465 247.199C56.4775 241.713 57.1563 236.242 58.5645 230.936C59.6336 226.387 61.5617 222.081 64.2468 218.244C66.7463 214.806 70.0191 211.993 73.8057 210.028C77.712 207.978 82.0792 206.945 86.4979 207.026ZM87.8787 268.329C89.1837 268.318 90.4431 267.852 91.4367 267.012C92.5635 265.977 93.514 264.768 94.2513 263.431C95.0396 261.799 95.6451 260.086 96.0569 258.323C96.4694 256.312 96.6653 254.264 96.6411 252.213C96.6411 238.731 93.0476 231.989 85.8607 231.989C80.7979 231.989 78.2666 237.151 78.2666 247.473C78.2682 250.348 78.499 253.219 78.957 256.058C79.2861 258.289 79.9111 260.467 80.8156 262.536C81.542 264.151 82.569 265.616 83.8427 266.854C84.9554 267.828 86.3949 268.354 87.8787 268.329Z" stroke="black" stroke-width="8" stroke-linecap="round" stroke-linejoin="round"/>
<path d="M109.493 221.246C107.002 217.097 103.61 213.553 99.5619 210.87C95.6969 208.313 91.1436 206.973 86.4979 207.026C82.0613 206.936 77.6747 207.969 73.7526 210.028C69.966 211.993 66.6932 214.806 64.1936 218.244C61.5273 222.085 59.6174 226.391 58.5645 230.936C57.1563 236.242 56.4775 241.713 56.5465 247.199C56.5465 261.876 59.2548 272.901 64.6716 280.274C70.0883 287.647 77.9303 291.334 88.1973 291.334C92.574 291.407 96.9171 290.564 100.943 288.858C104.559 287.34 107.762 284.994 110.289 282.012C112.915 278.778 114.865 275.057 116.025 271.068C117.341 266.353 117.967 261.476 117.883 256.585C117.939 249.977 117.227 243.385 115.759 236.94C114.486 231.423 112.373 226.131 109.493 221.246ZM78.957 256.058C78.499 253.219 78.2682 250.348 78.2666 247.473C78.2666 237.151 80.7979 231.989 85.8607 231.989C93.0547 231.989 96.6482 238.731 96.6411 252.213C96.6653 254.264 96.4694 256.312 96.0569 258.323C95.6451 260.086 95.0396 261.799 94.2513 263.431C93.514 264.768 92.5635 265.977 91.4367 267.012C90.4431 267.852 89.1837 268.318 87.8787 268.329C86.3949 268.354 84.9554 267.828 83.8427 266.855C82.569 265.616 81.542 264.151 80.8156 262.536C79.9111 260.467 79.2861 258.289 78.957 256.058Z" fill="#FFA85A"/>
<path d="M73.8057 231.673V209.817H17.2484L19.1602 233.043H35.7822V291.344H58.0865V231.673H73.8057Z" fill="#FE71CF"/>
<path d="M73.8057 231.673H58.0334V291.344H35.7822V233.043H19.1602L17.2484 209.817H73.8057V231.673Z" stroke="black" stroke-width="8" stroke-linecap="round" stroke-linejoin="round"/>
<path d="M58.0334 231.673H73.8057V209.817H17.2484L19.1602 233.043H35.7822V291.344H58.0865L58.0334 231.673Z" fill="#FF7B7B"/>
<path d="M397.377 203.128L372.524 207.552L383.57 261.325C383.724 262.177 383.699 263.051 383.498 263.894C383.297 264.736 382.924 265.529 382.401 266.223C381.898 266.948 381.245 267.558 380.485 268.012C379.725 268.466 378.875 268.754 377.994 268.856C376.478 269.172 374.974 268.47 373.48 266.749C371.819 265.038 370.709 262.874 370.293 260.535L350.113 263.589L353.406 273.964C354.473 276.696 356.059 279.2 358.079 281.338C360.239 283.597 362.705 285.547 365.408 287.131C368.083 288.585 370.94 289.682 373.905 290.396C376.72 291.083 379.648 291.19 382.508 290.712C395.961 288.353 403.449 279.961 404.971 265.538L397.377 203.128Z" fill="#BA67FF"/>
<path d="M397.377 203.128L404.971 265.538C403.456 279.997 395.968 288.388 382.508 290.712C379.648 291.19 376.72 291.083 373.905 290.396C370.94 289.682 368.083 288.585 365.408 287.131C362.705 285.547 360.239 283.597 358.079 281.338C356.059 279.2 354.473 276.696 353.406 273.964L350.113 263.589L370.293 260.535C370.709 262.874 371.819 265.038 373.48 266.749C374.967 268.463 376.471 269.165 377.994 268.856C378.875 268.754 379.725 268.466 380.485 268.012C381.245 267.558 381.898 266.948 382.401 266.223C382.924 265.529 383.297 264.736 383.498 263.894C383.699 263.051 383.724 262.177 383.57 261.325L372.524 207.605L397.377 203.128Z" stroke="black" stroke-width="8" stroke-linecap="round" stroke-linejoin="round"/>
<path d="M373.48 266.749C371.819 265.038 370.709 262.874 370.293 260.535L350.113 263.589L353.406 273.964C354.473 276.696 356.059 279.2 358.079 281.338C360.239 283.597 362.705 285.547 365.408 287.131C368.083 288.585 370.94 289.682 373.905 290.396C376.72 291.083 379.648 291.19 382.508 290.712C395.961 288.353 403.449 279.961 404.971 265.538L397.377 203.128L372.524 207.552L383.57 261.325C383.724 262.177 383.699 263.051 383.498 263.894C383.297 264.736 382.924 265.529 382.401 266.223C381.898 266.948 381.245 267.558 380.485 268.012C379.725 268.466 378.875 268.754 377.994 268.856C376.478 269.165 374.974 268.463 373.48 266.749Z" fill="#3DDBFF"/>
<path d="M420.903 225.08L420.106 224.974C418.507 224.918 416.911 224.777 415.327 224.553C407.892 223.816 403.909 227.204 403.378 234.718V257.891C403.378 261.051 404.844 262.61 407.892 262.473C408.841 262.418 409.729 261.995 410.366 261.295C411.002 260.595 411.334 259.675 411.291 258.733V287.7C411.744 290.677 413.39 292.082 416.23 291.913C419.203 291.913 420.765 290.554 420.903 287.858C421.221 290.554 422.793 291.913 425.629 291.913C428.568 292.124 430.214 290.719 430.568 287.7V258.639C430.531 259.587 430.872 260.512 431.518 261.212C432.165 261.913 433.064 262.331 434.02 262.378C437.072 262.546 438.541 261.019 438.428 257.796V234.623C437.967 227.102 434.02 223.714 426.585 224.458C424.748 224.7 423.155 224.837 421.806 224.879L420.903 224.985M427.807 203.813C425.961 202.024 423.483 201.023 420.903 201.023C418.322 201.023 415.845 202.024 413.999 203.813C413.108 204.667 412.399 205.689 411.916 206.821C411.432 207.952 411.182 209.168 411.182 210.396C411.182 211.625 411.432 212.841 411.916 213.972C412.399 215.103 413.108 216.126 413.999 216.98C415.845 218.768 418.322 219.769 420.903 219.769C423.483 219.769 425.961 218.768 427.807 216.98C428.691 216.135 429.392 215.12 429.867 213.997C430.342 212.874 430.58 211.667 430.568 210.449C430.582 209.223 430.344 208.008 429.87 206.876C429.395 205.744 428.693 204.72 427.807 203.866V203.813Z" fill="#01CDFF"/>
<path d="M411.291 258.639C411.334 259.58 411.002 260.5 410.366 261.2C409.729 261.9 408.841 262.323 407.892 262.378C404.844 262.515 403.346 260.988 403.378 257.796V234.623C403.909 227.102 407.892 223.714 415.327 224.458C416.911 224.682 418.507 224.823 420.106 224.88L420.903 224.985L421.806 224.88C423.155 224.88 424.748 224.7 426.585 224.458C434.02 223.721 437.967 227.109 438.428 234.623V257.796C438.534 261.019 437.065 262.546 434.02 262.378C433.064 262.331 432.165 261.913 431.518 261.212C430.872 260.512 430.531 259.587 430.568 258.639M430.568 258.639V287.605C430.214 290.582 428.568 291.987 425.629 291.818C422.793 291.818 421.221 290.46 420.903 287.763C420.765 290.46 419.203 291.818 416.23 291.818C413.397 292.029 411.751 290.625 411.291 287.605V237.835M430.568 258.639V237.835M420.903 287.71V261.167M430.568 210.502C430.58 211.719 430.342 212.927 429.867 214.05C429.392 215.173 428.691 216.188 427.807 217.032C425.961 218.821 423.483 219.822 420.903 219.822C418.323 219.822 415.845 218.821 413.999 217.032C413.108 216.179 412.399 215.156 411.916 214.025C411.432 212.894 411.182 211.678 411.182 210.449C411.182 209.22 411.432 208.004 411.916 206.873C412.399 205.742 413.108 204.719 413.999 203.866C415.845 202.077 418.323 201.076 420.903 201.076C423.483 201.076 425.961 202.077 427.807 203.866C428.7 204.726 429.405 205.759 429.88 206.9C430.355 208.041 430.589 209.267 430.568 210.502Z" stroke="black" stroke-width="8" stroke-linecap="round" stroke-linejoin="round"/>
<path d="M426.585 224.511C424.748 224.753 423.155 224.89 421.806 224.932L420.903 225.037L420.106 224.932C418.507 224.876 416.911 224.735 415.327 224.511C407.892 223.773 403.909 227.162 403.378 234.675V257.849C403.378 261.009 404.844 262.567 407.892 262.43C408.841 262.376 409.729 261.953 410.366 261.253C411.002 260.553 411.334 259.633 411.291 258.691V287.658C411.744 290.635 413.39 292.039 416.23 291.871C419.203 291.871 420.765 290.512 420.903 287.816C421.221 290.512 422.793 291.871 425.629 291.871C428.568 292.082 430.214 290.677 430.568 287.658V258.639C430.531 259.587 430.872 260.512 431.518 261.212C432.165 261.912 433.064 262.331 434.02 262.378C437.072 262.546 438.541 261.019 438.428 257.796V234.623C437.967 227.102 434.02 223.714 426.585 224.458M420.903 219.813C423.486 219.825 425.968 218.821 427.807 217.022C428.691 216.177 429.392 215.162 429.867 214.039C430.342 212.916 430.58 211.709 430.568 210.491C430.589 209.257 430.355 208.031 429.88 206.889C429.405 205.748 428.7 204.715 427.807 203.855C425.961 202.067 423.483 201.065 420.903 201.065C418.322 201.065 415.845 202.067 413.999 203.855C413.108 204.709 412.399 205.732 411.916 206.863C411.432 207.994 411.182 209.21 411.182 210.438C411.182 211.667 411.432 212.883 411.916 214.014C412.399 215.145 413.108 216.168 413.999 217.022C415.837 218.821 418.32 219.825 420.903 219.813Z" fill="#F693FF"/>
<path d="M446.553 208.795C444.885 207.919 443.534 206.55 442.687 204.877C441.757 202.968 441.302 200.866 441.359 198.747C441.296 196.61 441.751 194.489 442.687 192.564C443.53 190.897 444.878 189.534 446.542 188.666C448.456 187.778 450.542 187.318 452.655 187.318C454.767 187.318 456.854 187.778 458.767 188.666C460.431 189.534 461.779 190.897 462.622 192.564C463.554 194.491 464.009 196.61 463.95 198.747C464.009 200.879 463.554 202.995 462.622 204.919C461.776 206.592 460.424 207.961 458.756 208.837C456.847 209.726 454.764 210.186 452.655 210.186C450.546 210.186 448.462 209.726 446.553 208.837V208.795ZM457.078 206.12C458.297 205.469 459.283 204.461 459.904 203.234C460.589 201.838 460.928 200.299 460.891 198.747C460.934 197.147 460.599 195.56 459.914 194.112C459.306 192.869 458.322 191.846 457.1 191.184C455.714 190.518 454.194 190.172 452.655 190.172C451.115 190.172 449.595 190.518 448.21 191.184C446.985 191.843 446 192.867 445.395 194.112C444.71 195.56 444.376 197.147 444.418 198.747C444.376 200.312 444.711 201.865 445.395 203.276C446.012 204.491 446.996 205.485 448.21 206.12C449.584 206.81 451.11 207.15 452.649 207.11C454.186 207.154 455.709 206.813 457.078 206.12ZM448.167 192.89H450.992V204.477H448.167V192.89ZM449.93 198.462H453.457C453.644 198.47 453.83 198.438 454.004 198.369C454.178 198.3 454.335 198.195 454.466 198.062C454.731 197.743 454.864 197.337 454.837 196.924C454.866 196.509 454.733 196.098 454.466 195.776C454.335 195.644 454.177 195.541 454.003 195.474C453.829 195.407 453.643 195.377 453.457 195.386H449.93V192.89H453.382C453.957 192.845 454.536 192.915 455.083 193.096C455.63 193.277 456.135 193.565 456.568 193.943C456.935 194.338 457.218 194.801 457.4 195.306C457.583 195.811 457.661 196.347 457.631 196.882C457.661 197.416 457.582 197.95 457.4 198.453C457.217 198.957 456.935 199.418 456.568 199.81C456.142 200.201 455.639 200.501 455.091 200.691C454.543 200.881 453.961 200.958 453.382 200.916H449.93V198.462ZM452.617 199.905L454.986 198.683L457.96 204.403H454.774L452.617 199.905Z" fill="black"/>
</svg>
